<?xml version="1.0" encoding="UTF-8"?>
<!DOCTYPE svg PUBLIC "-//W3C//DTD SVG 1.1//EN" "http://www.w3.org/Graphics/SVG/1.1/DTD/svg11.dtd">
<!-- Creator: CorelDRAW 2021 (64-Bit) -->
<svg xmlns="http://www.w3.org/2000/svg" xml:space="preserve" width="11mm" height="14mm" version="1.1" style="shape-rendering:geometricPrecision; text-rendering:geometricPrecision; image-rendering:optimizeQuality; fill-rule:evenodd; clip-rule:evenodd"
viewBox="0 0 1100 1400"
 xmlns:xlink="http://www.w3.org/1999/xlink"
 xmlns:xodm="http://www.corel.com/coreldraw/odm/2003">
 <defs>
  <style type="text/css">
   <![CDATA[
    .fil0 {fill:black}
   ]]>
  </style>
 </defs>
 <g id="Capa_x0020_1">
  <metadata id="CorelCorpID_0Corel-Layer"/>
  <g id="_1606765971664">
   <path class="fil0" d="M358.79 373.25c-42.45,0 -54.11,0.64 -95.39,12.12 -35.58,9.9 -81.06,34.07 -109.13,59.14 -17.86,15.94 -26.1,23.45 -42.77,42.92 -10.8,12.61 -25.76,36.01 -34.09,50.04 -31.03,52.29 -52.07,136.04 -52.07,201.87l0 2.48 0 2.44c0.02,50.13 0.52,79.39 10.25,131.27 10.68,56.98 28.09,121.94 51.05,173.28l36.84 76.89c17.29,33.22 35.68,55.95 55.49,84.73 38.62,56.09 105.96,136.46 175.14,136.46 51.47,0 70,-10.61 113.08,-28.71 44.12,-18.53 57.38,-20.17 105.64,-23.52 80.72,-5.6 132.09,50.67 206.66,50.67 39.46,0 67.68,-9.74 97.28,-32.04 37.89,-28.55 64.54,-62.5 92.19,-102.56 42.4,-61.4 53.8,-78.92 84.73,-148.96 4.34,-9.82 20.06,-48.33 20.3,-59.16 -8.72,-2.03 -39.97,-19.86 -48.55,-26.24 -58.22,-43.22 -99.44,-92.63 -116.02,-165.98 -9.03,-39.98 -4.41,-33.53 -7.06,-56.81 -2.55,-22.38 2.15,-58.41 7.37,-78.76 12.87,-50.16 38.83,-95.31 74.24,-131.41 14.39,-14.68 40.52,-34.3 57.3,-45.54 -19.06,-28.45 -39.9,-48.97 -66.56,-68.98 -4.93,-3.7 -8.27,-6.35 -13.51,-9.86 -37.19,-24.89 -102.08,-48.9 -158.33,-48.9 -61.36,0 -80.1,3.45 -138.45,25.16 -105.09,39.12 -94.27,47.52 -200.34,5.11 -26.32,-10.52 -70.5,-27.15 -105.29,-27.15z"/>
   <path class="fil0" d="M544.21 326.52c0,8.41 -2.51,25.04 5.81,28.46 3.89,1.6 12.47,1.13 17.56,1.13 33.01,0 74.34,-16.26 95.72,-28.93 59.28,-35.15 89.01,-70.03 119.33,-131.5 19.57,-39.65 24.91,-75.68 24.91,-123.09 0,-7.83 -1.4,-6.98 -1.56,-14.02 -64.52,0 -136.2,42 -179.58,85.29 -42.58,42.51 -82.19,117.29 -82.19,182.66z"/>
  </g>
 </g>
</svg>
