<?xml version="1.0" encoding="UTF-8"?>
<!DOCTYPE svg PUBLIC "-//W3C//DTD SVG 1.1//EN" "http://www.w3.org/Graphics/SVG/1.1/DTD/svg11.dtd">
<!-- Creator: CorelDRAW 2021 (64-Bit) -->
<svg xmlns="http://www.w3.org/2000/svg" xml:space="preserve" width="39mm" height="7mm" version="1.1" style="shape-rendering:geometricPrecision; text-rendering:geometricPrecision; image-rendering:optimizeQuality; fill-rule:evenodd; clip-rule:evenodd"
viewBox="0 0 3900 700"
 xmlns:xlink="http://www.w3.org/1999/xlink"
 xmlns:xodm="http://www.corel.com/coreldraw/odm/2003">
 <defs>
  <style type="text/css">
   <![CDATA[
    .fil0 {fill:black}
    .fil2 {fill:black;fill-rule:nonzero}
    .fil1 {fill:black;fill-rule:nonzero}
    .fil3 {fill:url(#id0);fill-rule:nonzero}
    .fil5 {fill:url(#id1);fill-rule:nonzero}
    .fil4 {fill:url(#id2);fill-rule:nonzero}
   ]]>
  </style>
  <linearGradient id="id0" gradientUnits="userSpaceOnUse" x1="175.41" y1="91.29" x2="175.41" y2="501.87">
   <stop offset="0" style="stop-opacity:1; stop-color:#01602B"/>
   <stop offset="0.329412" style="stop-opacity:1; stop-color:#468B36"/>
   <stop offset="1" style="stop-opacity:1; stop-color:#8CB641"/>
  </linearGradient>
  <linearGradient id="id1" gradientUnits="userSpaceOnUse" x1="334.41" y1="64.44" x2="596.31" y2="675.54">
   <stop offset="0" style="stop-opacity:1; stop-color:#01A8E2"/>
   <stop offset="0.941176" style="stop-opacity:1; stop-color:#1A56A7"/>
   <stop offset="1" style="stop-opacity:1; stop-color:#1A56A7"/>
  </linearGradient>
  <linearGradient id="id2" gradientUnits="userSpaceOnUse" x1="63.24" y1="667.54" x2="318.58" y2="556.25">
   <stop offset="0" style="stop-opacity:1; stop-color:#087777"/>
   <stop offset="0.501961" style="stop-opacity:1; stop-color:#31BFB3"/>
   <stop offset="0.529412" style="stop-opacity:1; stop-color:#31BFB3"/>
   <stop offset="1" style="stop-opacity:1; stop-color:#31BFB3"/>
  </linearGradient>
 </defs>
 <g id="Capa_x0020_1">
  <metadata id="CorelCorpID_0Corel-Layer"/>
  <g id="_1606739294512">
   <g>
    <g>
     <path class="fil0" d="M2347.54 516.97c0,-124.1 0,-248.75 0,-378.35 86.53,5.15 174.39,-16.63 254.6,33.52 66.15,41.35 97.64,116.88 81.9,200.13 -13.15,69.56 -79.97,137.3 -151.61,143.6 -60.83,5.35 -122.51,1.1 -184.89,1.1zm68.69 -317.86l0 0c0,89.54 0,174.17 0,259.5 34.01,0 66.78,4 98.19,-0.83 64.34,-9.89 107.72,-65.1 106.54,-128.88 -1.24,-66.5 -42.57,-114.79 -109.95,-124.63 -29.83,-4.34 -60.42,-3.46 -94.78,-5.16z"/>
     <path class="fil0" d="M1872.77 327.04c4.12,-109.54 95.85,-198.23 200.98,-194.32 109.15,4.05 199.6,96.53 193.85,201.18 -6.61,120.77 -95.54,195.02 -200.83,193.57 -110.48,-1.53 -197.94,-95.59 -194,-200.43zm67.01 -0.86l0 0c-2.3,75.48 53.4,137.72 125.93,140.62 71.64,2.88 131.68,-56.1 134.56,-132.15 2.83,-74.62 -54.25,-138.21 -126.04,-140.44 -72.32,-2.25 -132.16,56.47 -134.45,131.97z"/>
     <path class="fil0" d="M3029.98 458.27c0,23.11 0,40.97 0,60.52 -90.46,0 -179.33,0 -270.79,0 0,-126.13 0,-252.14 0,-380.07 89.98,0 179.59,0 270.76,0 0,19.4 0,37.28 0,58.42 -66.28,0 -132.71,0 -201.87,0 0,33.77 0,64.42 0,99.07 42.15,0 84.14,0 128,0 0,21.53 0,39.15 0,60.01 -42.78,0 -84.87,0 -128.82,0 0,35.09 0,66.97 0,102.05 67.48,0 133.9,0 202.72,0z"/>
    </g>
   </g>
   <g>
    <path class="fil1" d="M3586.53 317.09c52.13,-56.71 113.39,-123.27 169.68,-184.5l-87.45 0 -165.67 172.13c0,-57.79 0,-114.07 0,-171.87 -22.75,0 -42.67,0 -64.97,0 0,128.34 0,254.44 0,380.49 22.51,0 42.39,0 66.25,0 0,-62.66 0,-123.61 0,-190.82 0,0 119.12,121.52 181.02,191.02l89.64 0c-60.89,-63.52 -136.41,-142.01 -188.5,-196.45z"/>
   </g>
   <g>
    <path class="fil1" d="M948.65 132.59l-64.24 0.69 -168.13 382.72 73.32 0 37.69 -91.58 177.67 0 39.11 91.58 72.71 0 -168.13 -383.41zm-96.61 231.69l0 0 62.44 -151.72 64.8 151.72 -127.24 0z"/>
   </g>
   <g>
    <polygon class="fil1" points="1550.16,191.37 1671.81,191.37 1671.81,514.63 1734.69,514.63 1734.69,192.05 1835.15,192.05 1860.93,132.59 1550.16,132.59 "/>
   </g>
   <g>
    <path class="fil1" d="M3237.93 294.67c-89.01,-25.15 -78.72,-63.18 -74.06,-73.88 4.67,-10.7 19.69,-29.56 76.66,-29.56 56.98,0 96.86,23.44 96.86,23.44l24.86 -50.44c-1.56,-2.55 -47.13,-30.07 -122.75,-31.6 -75.63,-1.52 -142.45,41.79 -142.45,101.92 0,60.12 36.48,88.67 108.26,109.55 81.29,23.64 106.19,44.33 106.19,74.39 0,30.06 -16.67,51.98 -75.73,51.98 -50.45,0 -111.44,-39.76 -126.53,-51.21l-23.87 50.85c19.56,12.93 91.41,53.86 154.64,53.86 71.49,0 131.57,-35.16 133.64,-108.02 2.07,-72.87 -54.79,-98.4 -135.72,-121.28z"/>
   </g>
   <g>
    <path class="fil1" d="M1405.37 359.86c0,52.65 -42.68,95.33 -95.33,95.33 -52.65,0 -95.33,-42.68 -95.33,-95.33l0 -227.27 -70.7 0 0 221.64c0,91.7 74.33,166.03 166.03,166.03 91.69,0 166.04,-74.33 166.04,-166.03l0 -221.64 -70.71 0 0 227.27z"/>
   </g>
   <g>
    <path class="fil2" d="M3858.31 489.64c0,13.59 -10.66,24.25 -24.56,24.25 -13.73,0 -24.69,-10.66 -24.69,-24.25 0,-13.3 10.96,-23.97 24.69,-23.97 13.9,0 24.56,10.67 24.56,23.97zm-43.11 0l0 0c0,10.67 7.89,19.14 18.7,19.14 10.53,0 18.27,-8.47 18.27,-18.99 0,-10.67 -7.74,-19.3 -18.42,-19.3 -10.66,0 -18.55,8.63 -18.55,19.15zm14.77 12.57l0 0 -5.57 0 0 -23.97c2.2,-0.44 5.27,-0.73 9.22,-0.73 4.52,0 6.57,0.73 8.32,1.75 1.32,1.03 2.34,2.93 2.34,5.26 0,2.64 -2.04,4.68 -4.96,5.56l0 0.29c2.33,0.88 3.65,2.64 4.38,5.84 0.73,3.65 1.16,5.11 1.76,6l-5.99 0c-0.74,-0.89 -1.18,-3.07 -1.91,-5.85 -0.44,-2.63 -1.9,-3.8 -4.97,-3.8l-2.62 0 0 9.65zm0.14 -13.59l0 0 2.63 0c3.07,0 5.55,-1.03 5.55,-3.51 0,-2.19 -1.61,-3.65 -5.11,-3.65 -1.47,0 -2.49,0.14 -3.07,0.29l0 6.87z"/>
   </g>
   <g>
    <path class="fil3" d="M230.34 31.53c-16.46,0.97 -23.23,10.36 -24.09,11.67 -0.08,0.11 -0.11,0.17 -0.11,0.16l-176.99 420.72c-0.11,0.41 -0.28,0.92 -0.53,1.6 -3.94,10.58 -3.18,19.48 0.11,26.68l1.99 3.66c7.64,12.17 22.69,18.43 31.68,18.44 6.91,0 61.42,0 128.1,0l134.36 -316.22c-34.02,-80.55 -59.61,-140.8 -63.3,-148.56 -7.25,-15.23 -21.96,-18.69 -31.22,-18.15z"/>
    <path class="fil4" d="M62.4 514.46c-8.99,-0.01 -24.04,-6.27 -31.68,-18.44l49.96 92.45 40.47 74.91c8.95,16.03 31.41,17.82 31.41,17.82 23.26,1.57 66.3,-20.02 74.78,-24.91 8.18,-4.72 204.18,-125.66 230.4,-141.83 -27.61,0 -162.47,0 -267.24,0 -66.68,0 -121.19,0 -128.1,0z"/>
    <path class="fil1" d="M30.72 496.02l-1.99 -3.66c0.59,1.27 1.26,2.5 1.99,3.66z"/>
    <path class="fil1" d="M206.14 43.37c0,0 0,0 0,-0.01 0,0.01 0,0.01 0,0.01l0 0z"/>
    <path class="fil1" d="M206.25 43.2c-0.04,0.05 -0.08,0.11 -0.11,0.16 0,0.01 0.03,-0.05 0.11,-0.16z"/>
    <path class="fil5" d="M443.75 45.79c0,0 -4.94,-16.29 -27.23,-16.2 0,0 -30.93,-0.11 -67.64,-0.19 -51.75,-0.11 -115,-0.17 -119.26,0.2 -11.1,0.95 -20.16,8.39 -23.37,13.6 0.86,-1.31 7.63,-10.7 24.09,-11.67 9.26,-0.54 23.97,2.92 31.22,18.15 3.69,7.76 29.28,68.01 63.3,148.56 74.25,175.77 188.66,448.27 203.51,483.65l183.78 0 -268.4 -636.1z"/>
   </g>
  </g>
 </g>
</svg>
