<?xml version="1.0" encoding="UTF-8"?>
<!DOCTYPE svg PUBLIC "-//W3C//DTD SVG 1.1//EN" "http://www.w3.org/Graphics/SVG/1.1/DTD/svg11.dtd">
<!-- Creator: CorelDRAW 2021 (64-Bit) -->
<svg xmlns="http://www.w3.org/2000/svg" xml:space="preserve" width="15mm" height="15mm" version="1.1" style="shape-rendering:geometricPrecision; text-rendering:geometricPrecision; image-rendering:optimizeQuality; fill-rule:evenodd; clip-rule:evenodd"
viewBox="0 0 1500 1500"
 xmlns:xlink="http://www.w3.org/1999/xlink"
 xmlns:xodm="http://www.corel.com/coreldraw/odm/2003">
 <defs>
  <style type="text/css">
   <![CDATA[
    .fil0 {fill:#0085CA;fill-rule:nonzero}
   ]]>
  </style>
 </defs>
 <g id="Capa_x0020_1">
  <metadata id="CorelCorpID_0Corel-Layer"/>
  <g id="_1606573579616">
   <g>
    <path class="fil0" d="M242.52 248.16l504.94 -211.85c396.05,0.55 716.81,322.15 716.23,718.21 -0.53,396.06 -322.17,716.78 -718.22,716.24 -396.07,-0.58 -716.79,-322.2 -716.23,-718.24 0.56,-396.05 322.18,-716.75 718.22,-716.21l-504.94 211.85zm1009.33 1.43l0 0 -504.48 -135.74c-176.61,-0.23 -336.63,71.14 -452.59,186.74 -115.93,115.62 -187.76,275.44 -187.97,452.03 -0.26,176.64 71.13,336.61 186.72,452.55 115.63,115.93 275.44,187.72 452.05,188.02 176.59,0.23 336.63,-71.16 452.54,-186.74 115.96,-115.59 187.79,-275.42 188.02,-452.03 0.26,-176.59 -71.13,-336.61 -186.71,-452.56 -115.64,-115.92 -275.45,-187.76 -452.06,-188.01l504.48 135.74z"/>
   </g>
   <g>
    <path class="fil0" d="M1185.95 812.58l107.17 0.15 -0.14 90.27 -214.91 -0.3 0.45 -308.58 107.75 0.17 -0.32 218.29zm-351.23 -17.5l0 0 -177.3 139.06 -161.72 -127.52c-23.42,56.05 -79.73,95.06 -144.89,94.96l-138.36 -0.2 0.42 -308.48 138.36 0.2c72.71,0.09 124.95,46.16 144.54,95.46l162.18 -127.08 59.98 47.27 -148.52 116.46 28.38 22.39 148.54 -116.46 59.95 47.27 -148.52 116.46 28.4 22.38 148.71 -116.41 0.16 -107.05 107.66 0.14 -0.28 218.26 107.18 0.16 -0.12 90.31 -214.89 -0.3 0.14 -107.28zm-427.58 -47.67l0 0c0.07,-41.98 -27.61,-65.66 -66.76,-65.7l-24.03 -0.05 -0.16 131.27 23.37 0c36.39,0.05 67.53,-19.8 67.58,-65.52z"/>
   </g>
  </g>
 </g>
</svg>
