<?xml version="1.0" encoding="UTF-8"?>
<!DOCTYPE svg PUBLIC "-//W3C//DTD SVG 1.1//EN" "http://www.w3.org/Graphics/SVG/1.1/DTD/svg11.dtd">
<!-- Creator: CorelDRAW 2021 (64-Bit) -->
<svg xmlns="http://www.w3.org/2000/svg" xml:space="preserve" width="15mm" height="15mm" version="1.1" style="shape-rendering:geometricPrecision; text-rendering:geometricPrecision; image-rendering:optimizeQuality; fill-rule:evenodd; clip-rule:evenodd"
viewBox="0 0 1500 1500"
 xmlns:xlink="http://www.w3.org/1999/xlink"
 xmlns:xodm="http://www.corel.com/coreldraw/odm/2003">
 <defs>
  <style type="text/css">
   <![CDATA[
    .fil0 {fill:#015294;fill-rule:nonzero}
   ]]>
  </style>
 </defs>
 <g id="Capa_x0020_1">
  <metadata id="CorelCorpID_0Corel-Layer"/>
  <g id="_1608050990816">
   <g>
    <path class="fil0" d="M751.95 49.61l-150.7 422.52 102.44 0.03c73.8,0.02 105.2,58.21 81.96,123.37l-149.84 420.11 -150.79 0 164.87 -462.27 -77.64 0 -164.85 462.27 -152.09 0 338.27 -948.5c-311.51,71.06 -543.99,349.79 -543.99,682.84 0,327.86 225.28,603.07 529.48,679.37l341.76 -959.58 247.51 0c51.19,0 115.58,34.52 87.75,113.08l-138.96 392.39c-17.75,50.12 -59.95,60.27 -93.56,60.27l-152.16 0.01 -147.57 414.34c8.69,0.32 17.39,0.54 26.15,0.54 386.82,0 700.41,-313.57 700.41,-700.41 0,-386.18 -312.53,-699.33 -698.47,-700.38l0.02 0zm291.58 502.63l-143.54 402.93 76.44 0 143.56 -402.93 -76.46 0z"/>
   </g>
  </g>
 </g>
</svg>
