<?xml version="1.0" encoding="UTF-8"?>
<!DOCTYPE svg PUBLIC "-//W3C//DTD SVG 1.1//EN" "http://www.w3.org/Graphics/SVG/1.1/DTD/svg11.dtd">
<!-- Creator: CorelDRAW 2021 (64-Bit) -->
<svg xmlns="http://www.w3.org/2000/svg" xml:space="preserve" width="44.193mm" height="9.121mm" version="1.1" style="shape-rendering:geometricPrecision; text-rendering:geometricPrecision; image-rendering:optimizeQuality; fill-rule:evenodd; clip-rule:evenodd"
viewBox="0 0 4419.3 912.1"
 xmlns:xlink="http://www.w3.org/1999/xlink"
 xmlns:xodm="http://www.corel.com/coreldraw/odm/2003">
 <defs>
  <style type="text/css">
   <![CDATA[
    .str0 {stroke:#FEFEFE;stroke-width:7.62;stroke-miterlimit:22.9256}
    .fil0 {fill:#325094}
    .fil1 {fill:#FEFEFE;fill-rule:nonzero}
   ]]>
  </style>
    <mask id="id0">
  <linearGradient id="id1" gradientUnits="userSpaceOnUse" x1="82.09" y1="434.73" x2="-0.16" y2="434.72">
   <stop offset="0" style="stop-opacity:1; stop-color:white"/>
   <stop offset="1" style="stop-opacity:0; stop-color:white"/>
  </linearGradient>
     <rect style="fill:url(#id1)" x="-3.97" y="-2.67" width="4426.95" height="919.74"/>
    </mask>
 </defs>
 <g id="Capa_x0020_1">
  <metadata id="CorelCorpID_0Corel-Layer"/>
  <g id="_2193592353728">
   <polygon class="fil0 str0" style="mask:url(#id0)" points="4419.17,1.14 -0.16,1.14 -0.16,913.26 4419.17,913.26 "/>
   <path class="fil1" d="M3015.1 575.27c0,1.04 -0.26,1.95 -0.78,2.66 -0.52,0.78 -1.36,1.36 -2.66,1.82 -1.23,0.45 -2.92,0.84 -5,1.16 -2.14,0.33 -4.73,0.46 -7.91,0.46 -3.05,0 -5.64,-0.13 -7.78,-0.46 -2.14,-0.32 -3.9,-0.71 -5.13,-1.16 -1.3,-0.46 -2.14,-1.04 -2.66,-1.82 -0.52,-0.71 -0.78,-1.62 -0.78,-2.66l0 -236.12c0,-1.04 0.26,-1.95 0.85,-2.66 0.58,-0.78 1.55,-1.36 2.85,-1.82 1.36,-0.45 3.05,-0.84 5.13,-1.16 2.07,-0.33 4.6,-0.46 7.52,-0.46 3.18,0 5.77,0.13 7.91,0.46 2.08,0.32 3.77,0.71 5,1.16 1.3,0.46 2.14,1.04 2.66,1.82 0.52,0.71 0.78,1.62 0.78,2.66l0 236.12z"/>
   <path id="_1" class="fil1" d="M3266.53 566.51c0,2.53 -0.46,4.74 -1.3,6.49 -0.84,1.75 -1.95,3.24 -3.31,4.35 -1.36,1.16 -2.92,1.94 -4.61,2.46 -1.75,0.52 -3.43,0.78 -5.12,0.78l-10.83 0c-3.38,0 -6.36,-0.33 -8.95,-1.04 -2.53,-0.71 -4.93,-1.94 -7.27,-3.76 -2.27,-1.82 -4.61,-4.28 -6.88,-7.4 -2.27,-3.11 -4.73,-7.2 -7.33,-12.13l-75.11 -139.92c-3.96,-7.2 -7.92,-14.79 -11.87,-22.7 -4.03,-7.92 -7.72,-15.63 -11.16,-23.09l-0.39 0c0.26,9.08 0.45,18.42 0.58,27.95 0.13,9.47 0.2,18.95 0.2,28.29l0 148.48c0,0.91 -0.26,1.75 -0.78,2.59 -0.58,0.78 -1.49,1.43 -2.73,1.89 -1.29,0.45 -2.91,0.84 -4.99,1.16 -2.08,0.33 -4.74,0.46 -7.91,0.46 -3.25,0 -5.91,-0.13 -7.98,-0.46 -2.08,-0.32 -3.7,-0.71 -4.87,-1.16 -1.23,-0.46 -2.07,-1.11 -2.66,-1.89 -0.52,-0.84 -0.78,-1.68 -0.78,-2.59l0 -226.97c0,-5.06 1.43,-8.7 4.35,-10.84 2.85,-2.14 5.97,-3.24 9.41,-3.24l16.08 0c3.77,0 6.94,0.32 9.47,0.97 2.6,0.59 4.87,1.69 6.88,3.12 2.01,1.42 4.02,3.5 5.9,6.09 1.88,2.6 3.9,5.84 5.97,9.8l57.73 107.94c3.57,6.62 7.01,13.04 10.32,19.33 3.31,6.29 6.55,12.46 9.6,18.55 3.05,6.04 6.1,12.07 9.08,17.97 3.05,5.84 5.97,11.81 8.95,17.78l0.2 0c-0.26,-10.06 -0.46,-20.44 -0.52,-31.27 -0.07,-10.83 -0.07,-21.28 -0.07,-31.27l0 -133.3c0,-0.91 0.26,-1.75 0.78,-2.47 0.58,-0.78 1.49,-1.42 2.73,-2.01 1.29,-0.58 2.98,-0.97 4.99,-1.23 2.08,-0.26 4.8,-0.39 8.17,-0.39 2.92,0 5.45,0.13 7.59,0.39 2.14,0.26 3.83,0.65 5,1.23 1.23,0.59 2.07,1.23 2.66,2.01 0.52,0.72 0.78,1.56 0.78,2.47l0 226.58z"/>
   <path id="_2" class="fil1" d="M3520.88 453.58c0,21.27 -2.72,39.89 -8.17,55.78 -5.45,15.96 -13.43,29.13 -23.88,39.57 -10.44,10.45 -23.28,18.3 -38.46,23.49 -15.25,5.19 -33.34,7.78 -54.36,7.78l-52.09 0c-2.92,0 -5.71,-0.97 -8.3,-2.92 -2.6,-2.01 -3.9,-5.45 -3.9,-10.38l0 -219.38c0,-4.93 1.3,-8.37 3.9,-10.38 2.59,-1.95 5.38,-2.92 8.3,-2.92l55.66 0c21.34,0 39.31,2.72 54.03,8.24 14.66,5.51 26.99,13.49 36.98,23.8 9.92,10.32 17.45,22.84 22.57,37.56 5.12,14.66 7.72,31.27 7.72,49.76zm-34.25 1.42c0,-13.29 -1.62,-25.68 -4.93,-37.17 -3.31,-11.48 -8.5,-21.4 -15.5,-29.77 -7.07,-8.37 -15.96,-14.85 -26.79,-19.59 -10.77,-4.67 -24.65,-7.01 -41.65,-7.01l-33.34 0 0 191.5 33.66 0c15.77,0 29,-1.95 39.83,-5.91 10.77,-3.89 19.79,-9.92 26.99,-18.03 7.26,-8.11 12.71,-18.29 16.28,-30.55 3.63,-12.2 5.45,-26.73 5.45,-43.47z"/>
   <path id="_3" class="fil1" d="M3603.85 575.27c0,1.04 -0.26,1.95 -0.78,2.66 -0.52,0.78 -1.36,1.36 -2.66,1.82 -1.23,0.45 -2.92,0.84 -5,1.16 -2.14,0.33 -4.73,0.46 -7.91,0.46 -3.05,0 -5.64,-0.13 -7.78,-0.46 -2.14,-0.32 -3.9,-0.71 -5.13,-1.16 -1.3,-0.46 -2.14,-1.04 -2.66,-1.82 -0.52,-0.71 -0.78,-1.62 -0.78,-2.66l0 -236.12c0,-1.04 0.26,-1.95 0.85,-2.66 0.58,-0.78 1.55,-1.36 2.85,-1.82 1.36,-0.45 3.05,-0.84 5.13,-1.16 2.07,-0.33 4.6,-0.46 7.52,-0.46 3.18,0 5.77,0.13 7.91,0.46 2.08,0.32 3.77,0.71 5,1.16 1.3,0.46 2.14,1.04 2.66,1.82 0.52,0.71 0.78,1.62 0.78,2.66l0 236.12z"/>
   <path id="_4" class="fil1" d="M3833.48 545.56c0,2.01 -0.06,3.76 -0.19,5.32 -0.13,1.49 -0.33,2.79 -0.65,3.96 -0.33,1.1 -0.72,2.14 -1.24,3.05 -0.51,0.84 -1.42,1.94 -2.66,3.17 -1.29,1.3 -3.95,3.25 -7.97,5.84 -4.09,2.6 -9.15,5.13 -15.18,7.59 -6.04,2.47 -12.91,4.54 -20.7,6.23 -7.85,1.75 -16.34,2.59 -25.62,2.59 -15.96,0 -30.42,-2.66 -43.27,-7.98 -12.84,-5.31 -23.87,-13.16 -32.88,-23.61 -9.09,-10.38 -16.09,-23.22 -20.96,-38.46 -4.86,-15.31 -7.33,-32.89 -7.33,-52.81 0,-20.43 2.66,-38.59 7.92,-54.62 5.25,-15.95 12.65,-29.51 22.18,-40.6 9.54,-11.1 20.89,-19.53 34.19,-25.37 13.23,-5.84 27.96,-8.75 44.04,-8.75 7.14,0 14.08,0.64 20.76,1.94 6.75,1.36 12.97,2.99 18.68,5 5.71,2.01 10.77,4.34 15.25,7 4.41,2.6 7.52,4.8 9.21,6.49 1.75,1.69 2.85,2.98 3.37,3.89 0.52,0.84 0.91,1.88 1.23,3.11 0.33,1.24 0.59,2.66 0.78,4.29 0.2,1.68 0.26,3.63 0.26,5.9 0,2.59 -0.13,4.73 -0.39,6.49 -0.26,1.81 -0.65,3.3 -1.17,4.54 -0.45,1.16 -1.1,2.07 -1.81,2.66 -0.65,0.58 -1.56,0.84 -2.53,0.84 -1.82,0 -4.28,-1.23 -7.53,-3.7 -3.17,-2.46 -7.26,-5.19 -12.32,-8.17 -5.06,-2.99 -11.16,-5.71 -18.36,-8.17 -7.26,-2.47 -15.89,-3.7 -25.95,-3.7 -11.02,0 -21.01,2.2 -29.97,6.55 -9.01,4.41 -16.73,10.83 -23.09,19.33 -6.36,8.5 -11.35,18.88 -14.85,31.14 -3.51,12.26 -5.26,26.27 -5.26,41.97 0,15.63 1.69,29.45 5.06,41.45 3.38,12 8.24,22.05 14.53,30.1 6.3,8.04 14.08,14.14 23.23,18.29 9.21,4.09 19.59,6.16 31.2,6.16 9.79,0 18.42,-1.23 25.75,-3.63 7.33,-2.4 13.56,-5.06 18.68,-8.04 5.19,-2.99 9.41,-5.65 12.72,-8.05 3.37,-2.4 5.96,-3.63 7.85,-3.63 0.9,0 1.68,0.19 2.33,0.58 0.65,0.39 1.1,1.11 1.49,2.14 0.39,1.11 0.72,2.6 0.91,4.48 0.2,1.88 0.26,4.28 0.26,7.2z"/>
   <path id="_5" class="fil1" d="M4013.75 566.64c0,2.34 -0.13,4.35 -0.39,6.04 -0.26,1.68 -0.72,3.11 -1.3,4.28 -0.65,1.16 -1.36,1.94 -2.21,2.46 -0.84,0.52 -1.75,0.78 -2.79,0.78l-118.12 0c-2.92,0 -5.71,-0.97 -8.3,-2.92 -2.6,-2.01 -3.9,-5.45 -3.9,-10.38l0 -219.38c0,-4.93 1.3,-8.37 3.9,-10.38 2.59,-1.95 5.38,-2.92 8.3,-2.92l116.76 0c1.04,0 1.95,0.26 2.79,0.78 0.84,0.52 1.49,1.3 2.01,2.46 0.46,1.17 0.91,2.6 1.23,4.28 0.33,1.69 0.46,3.83 0.46,6.36 0,2.34 -0.13,4.28 -0.46,6.03 -0.32,1.69 -0.77,3.12 -1.23,4.22 -0.52,1.04 -1.23,1.82 -2.01,2.34 -0.84,0.51 -1.75,0.77 -2.79,0.77l-96.26 0 0 77.07 82.64 0c1.04,0 1.95,0.26 2.79,0.84 0.78,0.58 1.49,1.36 2.07,2.4 0.59,1.04 0.98,2.4 1.24,4.15 0.26,1.82 0.39,3.89 0.39,6.29 0,2.34 -0.13,4.29 -0.39,5.91 -0.26,1.68 -0.65,2.98 -1.24,4.02 -0.58,1.04 -1.29,1.75 -2.07,2.21 -0.84,0.45 -1.75,0.64 -2.79,0.64l-82.64 0 0 87.97 97.62 0c1.04,0 1.95,0.25 2.79,0.77 0.85,0.52 1.56,1.3 2.21,2.34 0.58,1.1 1.04,2.53 1.3,4.22 0.26,1.68 0.39,3.82 0.39,6.35z"/>
  </g>
 </g>
</svg>
