<?xml version="1.0" encoding="UTF-8"?>
<!DOCTYPE svg PUBLIC "-//W3C//DTD SVG 1.1//EN" "http://www.w3.org/Graphics/SVG/1.1/DTD/svg11.dtd">
<!-- Creator: CorelDRAW 2021 (64-Bit) -->
<svg xmlns="http://www.w3.org/2000/svg" xml:space="preserve" width="14mm" height="14mm" version="1.1" style="shape-rendering:geometricPrecision; text-rendering:geometricPrecision; image-rendering:optimizeQuality; fill-rule:evenodd; clip-rule:evenodd"
viewBox="0 0 1400 1400"
 xmlns:xlink="http://www.w3.org/1999/xlink"
 xmlns:xodm="http://www.corel.com/coreldraw/odm/2003">
 <defs>
  <style type="text/css">
   <![CDATA[
    .str0 {stroke:#D2D3D5;stroke-width:200;stroke-miterlimit:22.9256}
    .fil2 {fill:#FEFEFE;fill-rule:nonzero}
    .fil0 {fill:#D2D3D5;fill-rule:nonzero}
    .fil1 {fill:url(#id0);fill-rule:nonzero}
   ]]>
  </style>
  <radialGradient id="id0" gradientUnits="userSpaceOnUse" gradientTransform="matrix(0.760841 -2.21757 2.21757 0.76084 -2672 1331)" cx="464.76" cy="1255.16" r="9732.56" fx="464.76" fy="1255.16">
   <stop offset="0" style="stop-opacity:1; stop-color:#325094"/>
   <stop offset="0.270588" style="stop-opacity:1; stop-color:#00AFEF"/>
   <stop offset="0.501961" style="stop-opacity:1; stop-color:#0098DA"/>
   <stop offset="0.85098" style="stop-opacity:1; stop-color:#325094"/>
   <stop offset="0.988235" style="stop-opacity:1; stop-color:#6372B5"/>
   <stop offset="1" style="stop-opacity:1; stop-color:#325094"/>
  </radialGradient>
 </defs>
 <g id="Capa_x0020_1">
  <metadata id="CorelCorpID_0Corel-Layer"/>
  <g id="_1608050939888">
   <path class="fil0 str0" d="M1250.84 1013.12c0,133.68 -107.85,242.04 -240.88,242.04l-625.39 0c-133.04,0 -240.88,-108.36 -240.88,-242.04l0 -620.78c0,-133.68 107.84,-242.04 240.88,-242.04l625.39 0c133.03,0 240.88,108.36 240.88,242.04l0 620.78z"/>
   <g>
    <path class="fil1" d="M1250.84 1013.12c0,133.68 -107.85,242.04 -240.88,242.04l-625.39 0c-133.04,0 -240.88,-108.36 -240.88,-242.04l0 -620.78c0,-133.68 107.84,-242.04 240.88,-242.04l625.39 0c133.03,0 240.88,108.36 240.88,242.04l0 620.78z"/>
    <path class="fil2" d="M863.9 1118.82l-336.58 0c-128.78,0 -234.15,-105.37 -234.15,-234.16l0 -358.64c0,-128.79 105.37,-234.16 234.15,-234.16l336.58 0c128.79,0 234.16,105.37 234.16,234.16l0 358.64c0,128.79 -105.37,234.16 -234.16,234.16zm0 -61.87l0 0c45.76,0 88.95,-18 121.62,-50.67 32.67,-32.66 50.66,-75.86 50.66,-121.62l0 -358.64c0,-45.76 -17.99,-88.96 -50.66,-121.63 -32.67,-32.67 -75.86,-50.66 -121.62,-50.66l-336.58 0c-45.76,0 -88.95,17.99 -121.62,50.66 -32.67,32.67 -50.66,75.87 -50.66,121.63l0 358.64c0,45.76 17.99,88.96 50.66,121.62 32.67,32.67 75.86,50.67 121.62,50.67l336.58 0z"/>
    <path class="fil2" d="M918.5 702.15c0,122.41 -99.23,221.64 -221.64,221.64 -122.41,0 -221.65,-99.23 -221.65,-221.64 0,-122.41 99.24,-221.65 221.65,-221.65 122.41,0 221.64,99.24 221.64,221.65zm-222.71 -144.96l0 0c-80.16,0 -145.14,64.98 -145.14,145.13 0,80.16 64.98,145.14 145.14,145.14 80.15,0 145.13,-64.98 145.13,-145.14 0,-80.15 -64.98,-145.13 -145.13,-145.13z"/>
    <path class="fil2" d="M974.54 477.06c0,28.98 -23.5,52.48 -52.48,52.48 -28.99,0 -52.48,-23.5 -52.48,-52.48 0,-28.99 23.49,-52.48 52.48,-52.48 28.98,0 52.48,23.49 52.48,52.48z"/>
   </g>
  </g>
 </g>
</svg>
