<?xml version="1.0" encoding="UTF-8"?>
<!DOCTYPE svg PUBLIC "-//W3C//DTD SVG 1.1//EN" "http://www.w3.org/Graphics/SVG/1.1/DTD/svg11.dtd">
<!-- Creator: CorelDRAW 2021 (64-Bit) -->
<svg xmlns="http://www.w3.org/2000/svg" xml:space="preserve" width="44.193mm" height="9.121mm" version="1.1" style="shape-rendering:geometricPrecision; text-rendering:geometricPrecision; image-rendering:optimizeQuality; fill-rule:evenodd; clip-rule:evenodd"
viewBox="0 0 4419.3 912.1"
 xmlns:xlink="http://www.w3.org/1999/xlink"
 xmlns:xodm="http://www.corel.com/coreldraw/odm/2003">
 <defs>
  <style type="text/css">
   <![CDATA[
    .str0 {stroke:#FEFEFE;stroke-width:7.62;stroke-miterlimit:22.9256}
    .fil0 {fill:#325094}
    .fil1 {fill:#FEFEFE;fill-rule:nonzero}
   ]]>
  </style>
    <mask id="id0">
  <linearGradient id="id1" gradientUnits="userSpaceOnUse" x1="84.99" y1="434.73" x2="2.85" y2="434.72">
   <stop offset="0" style="stop-opacity:1; stop-color:white"/>
   <stop offset="1" style="stop-opacity:0; stop-color:white"/>
  </linearGradient>
     <rect style="fill:url(#id1)" x="-0.96" y="-2.67" width="4420.92" height="919.74"/>
    </mask>
 </defs>
 <g id="Capa_x0020_1">
  <metadata id="CorelCorpID_0Corel-Layer"/>
  <g id="_2195159651600">
   <polygon class="fil0 str0" style="mask:url(#id0)" points="4416.15,1.14 2.85,1.14 2.85,913.26 4416.15,913.26 "/>
   <path class="fil1" d="M1504.29 575.27c0,1.04 -0.26,1.95 -0.78,2.66 -0.52,0.78 -1.43,1.36 -2.72,1.82 -1.3,0.45 -2.99,0.84 -5,1.16 -2.01,0.33 -4.67,0.46 -7.91,0.46 -3.05,0 -5.65,-0.13 -7.79,-0.46 -2.14,-0.32 -3.83,-0.71 -5.06,-1.16 -1.23,-0.46 -2.14,-1.04 -2.66,-1.82 -0.52,-0.71 -0.78,-1.62 -0.78,-2.66l0 -214.27 -0.39 0 -86.6 215.24c-0.32,0.91 -0.9,1.62 -1.55,2.27 -0.72,0.65 -1.75,1.17 -3.05,1.63 -1.36,0.45 -2.92,0.77 -4.8,0.97 -1.82,0.19 -4.02,0.26 -6.55,0.26 -2.66,0 -4.93,-0.13 -6.82,-0.39 -1.88,-0.26 -3.5,-0.59 -4.73,-1.04 -1.3,-0.45 -2.27,-0.97 -2.99,-1.62 -0.64,-0.65 -1.16,-1.3 -1.42,-2.08l-82.91 -215.24 -0.19 0 0 214.27c0,1.04 -0.26,1.95 -0.78,2.66 -0.52,0.78 -1.43,1.36 -2.72,1.82 -1.3,0.45 -3.05,0.84 -5.13,1.16 -2.07,0.33 -4.73,0.46 -7.98,0.46 -3.18,0 -5.77,-0.13 -7.85,-0.46 -2.07,-0.32 -3.76,-0.71 -4.99,-1.16 -1.23,-0.46 -2.08,-1.04 -2.53,-1.82 -0.46,-0.71 -0.72,-1.62 -0.72,-2.66l0 -226.2c0,-5.39 1.43,-9.15 4.22,-11.42 2.86,-2.27 6.03,-3.44 9.47,-3.44l20.11 0c4.09,0 7.72,0.39 10.77,1.17 3.11,0.71 5.77,1.95 8.11,3.57 2.33,1.69 4.28,3.76 5.77,6.29 1.56,2.53 2.92,5.51 4.09,8.95l70.38 178.14 0.98 0 73.04 -177.62c1.43,-3.76 2.98,-7 4.67,-9.66 1.69,-2.66 3.5,-4.8 5.51,-6.36 1.95,-1.62 4.22,-2.73 6.62,-3.44 2.47,-0.71 5.32,-1.04 8.5,-1.04l21.08 0c1.88,0 3.76,0.26 5.52,0.85 1.68,0.58 3.17,1.49 4.41,2.66 1.23,1.23 2.2,2.72 2.98,4.6 0.78,1.82 1.17,4.09 1.17,6.75l0 226.2z"/>
   <path id="_1" class="fil1" d="M1753.84 568.65c0.97,2.79 1.56,5 1.62,6.75 0.07,1.69 -0.45,2.98 -1.42,3.89 -1.04,0.85 -2.73,1.43 -5.06,1.69 -2.34,0.26 -5.45,0.39 -9.41,0.39 -3.89,0 -7.07,-0.07 -9.41,-0.26 -2.33,-0.2 -4.08,-0.52 -5.32,-0.97 -1.23,-0.46 -2.07,-1.04 -2.66,-1.82 -0.58,-0.78 -1.1,-1.69 -1.62,-2.86l-21.08 -59.87 -102.24 0 -20.17 59.1c-0.39,1.16 -0.84,2.14 -1.49,2.98 -0.65,0.84 -1.56,1.49 -2.79,2.08 -1.17,0.58 -2.92,0.97 -5.13,1.23 -2.2,0.26 -5.06,0.39 -8.62,0.39 -3.7,0 -6.69,-0.13 -9.02,-0.46 -2.34,-0.32 -4.02,-0.9 -4.93,-1.81 -0.97,-0.91 -1.43,-2.21 -1.36,-3.89 0.06,-1.76 0.58,-3.96 1.62,-6.75l82.45 -228.54c0.52,-1.43 1.23,-2.59 2.01,-3.44 0.84,-0.9 2.01,-1.62 3.63,-2.07 1.56,-0.52 3.57,-0.91 6.1,-1.11 2.46,-0.19 5.58,-0.25 9.41,-0.25 4.02,0 7.39,0.06 10.05,0.25 2.66,0.2 4.8,0.59 6.42,1.11 1.69,0.45 2.92,1.23 3.83,2.14 0.91,0.97 1.62,2.14 2.08,3.5l82.51 228.6zm-105.87 -201.74l-0.19 0 -42.36 122.6 85.5 0 -42.95 -122.6z"/>
   <path id="_2" class="fil1" d="M1980.95 566.51c0,2.53 -0.45,4.74 -1.3,6.49 -0.84,1.75 -1.94,3.24 -3.3,4.35 -1.37,1.16 -2.92,1.94 -4.61,2.46 -1.75,0.52 -3.44,0.78 -5.12,0.78l-10.84 0c-3.37,0 -6.36,-0.33 -8.95,-1.04 -2.53,-0.71 -4.93,-1.94 -7.27,-3.76 -2.27,-1.82 -4.6,-4.28 -6.87,-7.4 -2.27,-3.11 -4.74,-7.2 -7.33,-12.13l-75.12 -139.92c-3.96,-7.2 -7.92,-14.79 -11.87,-22.71 -4.02,-7.91 -7.72,-15.63 -11.16,-23.09l-0.39 0c0.26,9.08 0.45,18.42 0.58,27.96 0.13,9.47 0.2,18.94 0.2,28.28l0 148.49c0,0.91 -0.26,1.75 -0.78,2.59 -0.58,0.78 -1.49,1.43 -2.72,1.89 -1.3,0.45 -2.92,0.84 -5,1.16 -2.07,0.33 -4.73,0.46 -7.91,0.46 -3.25,0 -5.91,-0.13 -7.98,-0.46 -2.08,-0.32 -3.7,-0.71 -4.87,-1.16 -1.23,-0.46 -2.07,-1.11 -2.66,-1.89 -0.52,-0.84 -0.78,-1.68 -0.78,-2.59l0 -226.98c0,-5.06 1.43,-8.69 4.35,-10.83 2.86,-2.14 5.97,-3.25 9.41,-3.25l16.08 0c3.77,0 6.95,0.33 9.48,0.98 2.59,0.58 4.86,1.68 6.87,3.11 2.01,1.43 4.02,3.5 5.91,6.1 1.88,2.59 3.89,5.84 5.96,9.79l57.74 107.95c3.57,6.61 7,13.04 10.31,19.33 3.31,6.29 6.55,12.45 9.6,18.55 3.05,6.03 6.1,12.07 9.08,17.97 3.05,5.84 5.97,11.81 8.96,17.77l0.19 0c-0.26,-10.05 -0.45,-20.43 -0.52,-31.26 -0.06,-10.84 -0.06,-21.28 -0.06,-31.27l0 -133.31c0,-0.91 0.26,-1.75 0.78,-2.46 0.58,-0.78 1.49,-1.43 2.72,-2.01 1.3,-0.59 2.98,-0.98 5,-1.24 2.07,-0.26 4.8,-0.39 8.17,-0.39 2.92,0 5.45,0.13 7.59,0.39 2.14,0.26 3.83,0.65 4.99,1.24 1.24,0.58 2.08,1.23 2.66,2.01 0.52,0.71 0.78,1.55 0.78,2.46l0 226.59z"/>
   <path id="_3" class="fil1" d="M2200.28 348.22c0,2.41 -0.13,4.48 -0.39,6.23 -0.26,1.75 -0.65,3.18 -1.24,4.28 -0.58,1.04 -1.23,1.89 -2.07,2.34 -0.85,0.52 -1.75,0.78 -2.73,0.78l-69.08 0 0 213.42c0,1.04 -0.26,1.88 -0.78,2.66 -0.52,0.78 -1.36,1.36 -2.66,1.82 -1.23,0.45 -2.92,0.84 -5,1.16 -2.14,0.33 -4.73,0.46 -7.91,0.46 -3.05,0 -5.64,-0.13 -7.78,-0.46 -2.15,-0.32 -3.9,-0.71 -5.13,-1.16 -1.3,-0.46 -2.14,-1.04 -2.66,-1.82 -0.52,-0.78 -0.78,-1.62 -0.78,-2.66l0 -213.42 -69.08 0c-0.98,0 -1.89,-0.26 -2.73,-0.78 -0.84,-0.45 -1.49,-1.3 -2.01,-2.34 -0.45,-1.1 -0.91,-2.53 -1.23,-4.28 -0.33,-1.75 -0.46,-3.82 -0.46,-6.23 0,-2.4 0.13,-4.54 0.46,-6.35 0.32,-1.82 0.78,-3.31 1.23,-4.41 0.52,-1.17 1.17,-2.01 2.01,-2.47 0.84,-0.52 1.75,-0.78 2.73,-0.78l170.86 0c0.98,0 1.88,0.26 2.73,0.78 0.84,0.46 1.49,1.3 2.07,2.47 0.59,1.1 0.98,2.59 1.24,4.41 0.26,1.81 0.39,3.95 0.39,6.35z"/>
   <path id="_4" class="fil1" d="M2372.83 566.64c0,2.34 -0.13,4.35 -0.39,6.04 -0.26,1.68 -0.71,3.11 -1.3,4.28 -0.65,1.16 -1.36,1.94 -2.2,2.46 -0.85,0.52 -1.75,0.78 -2.79,0.78l-118.13 0c-2.92,0 -5.71,-0.97 -8.3,-2.92 -2.6,-2.01 -3.9,-5.45 -3.9,-10.38l0 -219.39c0,-4.93 1.3,-8.37 3.9,-10.38 2.59,-1.94 5.38,-2.92 8.3,-2.92l116.77 0c1.03,0 1.94,0.26 2.79,0.78 0.84,0.52 1.49,1.3 2.01,2.47 0.45,1.16 0.9,2.59 1.23,4.28 0.32,1.68 0.45,3.83 0.45,6.36 0,2.33 -0.13,4.28 -0.45,6.03 -0.33,1.68 -0.78,3.11 -1.23,4.21 -0.52,1.04 -1.24,1.82 -2.01,2.34 -0.85,0.52 -1.76,0.78 -2.79,0.78l-96.27 0 0 77.06 82.64 0c1.04,0 1.95,0.26 2.79,0.85 0.78,0.58 1.49,1.36 2.08,2.4 0.58,1.04 0.97,2.4 1.23,4.15 0.26,1.82 0.39,3.89 0.39,6.29 0,2.34 -0.13,4.28 -0.39,5.9 -0.26,1.69 -0.65,2.99 -1.23,4.03 -0.59,1.03 -1.3,1.75 -2.08,2.2 -0.84,0.46 -1.75,0.65 -2.79,0.65l-82.64 0 0 87.96 97.63 0c1.04,0 1.94,0.26 2.79,0.78 0.84,0.52 1.55,1.3 2.2,2.34 0.59,1.1 1.04,2.53 1.3,4.21 0.26,1.69 0.39,3.83 0.39,6.36z"/>
   <path id="_5" class="fil1" d="M2611.94 566.51c0,2.53 -0.45,4.74 -1.3,6.49 -0.84,1.75 -1.94,3.24 -3.3,4.35 -1.37,1.16 -2.92,1.94 -4.61,2.46 -1.75,0.52 -3.44,0.78 -5.12,0.78l-10.84 0c-3.37,0 -6.36,-0.33 -8.95,-1.04 -2.53,-0.71 -4.93,-1.94 -7.27,-3.76 -2.27,-1.82 -4.6,-4.28 -6.87,-7.4 -2.27,-3.11 -4.74,-7.2 -7.33,-12.13l-75.12 -139.92c-3.96,-7.2 -7.92,-14.79 -11.87,-22.71 -4.02,-7.91 -7.72,-15.63 -11.16,-23.09l-0.39 0c0.26,9.08 0.45,18.42 0.58,27.96 0.13,9.47 0.2,18.94 0.2,28.28l0 148.49c0,0.91 -0.26,1.75 -0.78,2.59 -0.58,0.78 -1.49,1.43 -2.72,1.89 -1.3,0.45 -2.92,0.84 -5,1.16 -2.07,0.33 -4.73,0.46 -7.91,0.46 -3.25,0 -5.91,-0.13 -7.98,-0.46 -2.08,-0.32 -3.7,-0.71 -4.87,-1.16 -1.23,-0.46 -2.07,-1.11 -2.66,-1.89 -0.52,-0.84 -0.78,-1.68 -0.78,-2.59l0 -226.98c0,-5.06 1.43,-8.69 4.35,-10.83 2.86,-2.14 5.97,-3.25 9.41,-3.25l16.08 0c3.77,0 6.95,0.33 9.48,0.98 2.59,0.58 4.86,1.68 6.87,3.11 2.01,1.43 4.02,3.5 5.91,6.1 1.88,2.59 3.89,5.84 5.96,9.79l57.74 107.95c3.57,6.61 7,13.04 10.31,19.33 3.31,6.29 6.55,12.45 9.6,18.55 3.05,6.03 6.1,12.07 9.08,17.97 3.05,5.84 5.97,11.81 8.96,17.77l0.19 0c-0.26,-10.05 -0.45,-20.43 -0.52,-31.26 -0.06,-10.84 -0.06,-21.28 -0.06,-31.27l0 -133.31c0,-0.91 0.26,-1.75 0.78,-2.46 0.58,-0.78 1.49,-1.43 2.72,-2.01 1.3,-0.59 2.98,-0.98 5,-1.24 2.07,-0.26 4.8,-0.39 8.17,-0.39 2.92,0 5.45,0.13 7.59,0.39 2.14,0.26 3.83,0.65 4.99,1.24 1.24,0.58 2.08,1.23 2.66,2.01 0.52,0.71 0.78,1.55 0.78,2.46l0 226.59z"/>
   <path id="_6" class="fil1" d="M2709.83 575.27c0,1.04 -0.26,1.95 -0.78,2.66 -0.52,0.78 -1.36,1.36 -2.66,1.82 -1.23,0.45 -2.92,0.84 -4.99,1.16 -2.14,0.33 -4.74,0.46 -7.92,0.46 -3.05,0 -5.64,-0.13 -7.78,-0.46 -2.14,-0.32 -3.89,-0.71 -5.13,-1.16 -1.29,-0.46 -2.14,-1.04 -2.66,-1.82 -0.52,-0.71 -0.78,-1.62 -0.78,-2.66l0 -236.13c0,-1.03 0.26,-1.94 0.85,-2.66 0.58,-0.78 1.55,-1.36 2.85,-1.81 1.36,-0.46 3.05,-0.85 5.13,-1.17 2.07,-0.32 4.6,-0.45 7.52,-0.45 3.18,0 5.78,0.13 7.92,0.45 2.07,0.32 3.76,0.71 4.99,1.17 1.3,0.45 2.14,1.03 2.66,1.81 0.52,0.72 0.78,1.63 0.78,2.66l0 236.13z"/>
   <path id="_7" class="fil1" d="M3042.61 575.27c0,1.04 -0.26,1.95 -0.78,2.66 -0.52,0.78 -1.43,1.36 -2.72,1.82 -1.3,0.45 -2.99,0.84 -5,1.16 -2.01,0.33 -4.67,0.46 -7.91,0.46 -3.05,0 -5.65,-0.13 -7.79,-0.46 -2.14,-0.32 -3.83,-0.71 -5.06,-1.16 -1.23,-0.46 -2.14,-1.04 -2.66,-1.82 -0.52,-0.71 -0.78,-1.62 -0.78,-2.66l0 -214.27 -0.39 0 -86.6 215.24c-0.32,0.91 -0.9,1.62 -1.55,2.27 -0.72,0.65 -1.75,1.17 -3.05,1.63 -1.36,0.45 -2.92,0.77 -4.8,0.97 -1.82,0.19 -4.02,0.26 -6.55,0.26 -2.66,0 -4.93,-0.13 -6.82,-0.39 -1.88,-0.26 -3.5,-0.59 -4.73,-1.04 -1.3,-0.45 -2.27,-0.97 -2.99,-1.62 -0.64,-0.65 -1.16,-1.3 -1.42,-2.08l-82.91 -215.24 -0.19 0 0 214.27c0,1.04 -0.26,1.95 -0.78,2.66 -0.52,0.78 -1.43,1.36 -2.72,1.82 -1.3,0.45 -3.05,0.84 -5.13,1.16 -2.07,0.33 -4.73,0.46 -7.98,0.46 -3.18,0 -5.77,-0.13 -7.85,-0.46 -2.07,-0.32 -3.76,-0.71 -4.99,-1.16 -1.23,-0.46 -2.08,-1.04 -2.53,-1.82 -0.46,-0.71 -0.72,-1.62 -0.72,-2.66l0 -226.2c0,-5.39 1.43,-9.15 4.22,-11.42 2.86,-2.27 6.03,-3.44 9.47,-3.44l20.11 0c4.09,0 7.72,0.39 10.77,1.17 3.11,0.71 5.77,1.95 8.11,3.57 2.33,1.69 4.28,3.76 5.77,6.29 1.56,2.53 2.92,5.51 4.09,8.95l70.38 178.14 0.98 0 73.04 -177.62c1.43,-3.76 2.98,-7 4.67,-9.66 1.69,-2.66 3.5,-4.8 5.51,-6.36 1.95,-1.62 4.22,-2.73 6.62,-3.44 2.47,-0.71 5.32,-1.04 8.5,-1.04l21.08 0c1.88,0 3.76,0.26 5.52,0.85 1.68,0.58 3.17,1.49 4.41,2.66 1.23,1.23 2.2,2.72 2.98,4.6 0.78,1.82 1.17,4.09 1.17,6.75l0 226.2z"/>
   <path id="_8" class="fil1" d="M3140.69 575.27c0,1.04 -0.26,1.95 -0.78,2.66 -0.52,0.78 -1.36,1.36 -2.66,1.82 -1.23,0.45 -2.92,0.84 -4.99,1.16 -2.14,0.33 -4.74,0.46 -7.92,0.46 -3.05,0 -5.64,-0.13 -7.78,-0.46 -2.14,-0.32 -3.89,-0.71 -5.13,-1.16 -1.29,-0.46 -2.14,-1.04 -2.66,-1.82 -0.52,-0.71 -0.78,-1.62 -0.78,-2.66l0 -236.13c0,-1.03 0.26,-1.94 0.85,-2.66 0.58,-0.78 1.55,-1.36 2.85,-1.81 1.36,-0.46 3.05,-0.85 5.13,-1.17 2.07,-0.32 4.6,-0.45 7.52,-0.45 3.18,0 5.78,0.13 7.92,0.45 2.07,0.32 3.76,0.71 4.99,1.17 1.3,0.45 2.14,1.03 2.66,1.81 0.52,0.72 0.78,1.63 0.78,2.66l0 236.13z"/>
   <path id="_9" class="fil1" d="M3343.08 566.64c0,2.34 -0.13,4.35 -0.39,6.04 -0.26,1.68 -0.71,3.11 -1.3,4.28 -0.65,1.16 -1.36,1.94 -2.2,2.46 -0.85,0.52 -1.75,0.78 -2.79,0.78l-118.13 0c-2.92,0 -5.71,-0.97 -8.3,-2.92 -2.6,-2.01 -3.9,-5.45 -3.9,-10.38l0 -219.39c0,-4.93 1.3,-8.37 3.9,-10.38 2.59,-1.94 5.38,-2.92 8.3,-2.92l116.77 0c1.03,0 1.94,0.26 2.79,0.78 0.84,0.52 1.49,1.3 2.01,2.47 0.45,1.16 0.9,2.59 1.23,4.28 0.32,1.68 0.45,3.83 0.45,6.36 0,2.33 -0.13,4.28 -0.45,6.03 -0.33,1.68 -0.78,3.11 -1.23,4.21 -0.52,1.04 -1.24,1.82 -2.01,2.34 -0.85,0.52 -1.76,0.78 -2.79,0.78l-96.27 0 0 77.06 82.64 0c1.04,0 1.95,0.26 2.79,0.85 0.78,0.58 1.49,1.36 2.08,2.4 0.58,1.04 0.97,2.4 1.23,4.15 0.26,1.82 0.39,3.89 0.39,6.29 0,2.34 -0.13,4.28 -0.39,5.9 -0.26,1.69 -0.65,2.99 -1.23,4.03 -0.59,1.03 -1.3,1.75 -2.08,2.2 -0.84,0.46 -1.75,0.65 -2.79,0.65l-82.64 0 0 87.96 97.63 0c1.04,0 1.94,0.26 2.79,0.78 0.84,0.52 1.55,1.3 2.2,2.34 0.59,1.1 1.04,2.53 1.3,4.21 0.26,1.69 0.39,3.83 0.39,6.36z"/>
   <path id="_10" class="fil1" d="M3582.19 566.51c0,2.53 -0.45,4.74 -1.3,6.49 -0.84,1.75 -1.94,3.24 -3.3,4.35 -1.37,1.16 -2.92,1.94 -4.61,2.46 -1.75,0.52 -3.44,0.78 -5.12,0.78l-10.84 0c-3.37,0 -6.36,-0.33 -8.95,-1.04 -2.53,-0.71 -4.93,-1.94 -7.27,-3.76 -2.27,-1.82 -4.6,-4.28 -6.87,-7.4 -2.27,-3.11 -4.74,-7.2 -7.33,-12.13l-75.12 -139.92c-3.96,-7.2 -7.92,-14.79 -11.87,-22.71 -4.02,-7.91 -7.72,-15.63 -11.16,-23.09l-0.39 0c0.26,9.08 0.45,18.42 0.58,27.96 0.13,9.47 0.2,18.94 0.2,28.28l0 148.49c0,0.91 -0.26,1.75 -0.78,2.59 -0.58,0.78 -1.49,1.43 -2.72,1.89 -1.3,0.45 -2.92,0.84 -5,1.16 -2.07,0.33 -4.73,0.46 -7.91,0.46 -3.25,0 -5.91,-0.13 -7.98,-0.46 -2.08,-0.32 -3.7,-0.71 -4.87,-1.16 -1.23,-0.46 -2.07,-1.11 -2.66,-1.89 -0.52,-0.84 -0.78,-1.68 -0.78,-2.59l0 -226.98c0,-5.06 1.43,-8.69 4.35,-10.83 2.86,-2.14 5.97,-3.25 9.41,-3.25l16.08 0c3.77,0 6.95,0.33 9.48,0.98 2.59,0.58 4.86,1.68 6.87,3.11 2.01,1.43 4.02,3.5 5.91,6.1 1.88,2.59 3.89,5.84 5.96,9.79l57.74 107.95c3.57,6.61 7,13.04 10.31,19.33 3.31,6.29 6.55,12.45 9.6,18.55 3.05,6.03 6.1,12.07 9.08,17.97 3.05,5.84 5.97,11.81 8.96,17.77l0.19 0c-0.26,-10.05 -0.45,-20.43 -0.52,-31.26 -0.06,-10.84 -0.06,-21.28 -0.06,-31.27l0 -133.31c0,-0.91 0.26,-1.75 0.78,-2.46 0.58,-0.78 1.49,-1.43 2.72,-2.01 1.3,-0.59 2.98,-0.98 5,-1.24 2.07,-0.26 4.8,-0.39 8.17,-0.39 2.92,0 5.45,0.13 7.59,0.39 2.14,0.26 3.83,0.65 4.99,1.24 1.24,0.58 2.08,1.23 2.66,2.01 0.52,0.71 0.78,1.55 0.78,2.46l0 226.59z"/>
   <path id="_11" class="fil1" d="M3801.52 348.22c0,2.41 -0.13,4.48 -0.39,6.23 -0.26,1.75 -0.65,3.18 -1.24,4.28 -0.58,1.04 -1.23,1.89 -2.07,2.34 -0.85,0.52 -1.75,0.78 -2.73,0.78l-69.08 0 0 213.42c0,1.04 -0.26,1.88 -0.78,2.66 -0.52,0.78 -1.36,1.36 -2.66,1.82 -1.23,0.45 -2.92,0.84 -5,1.16 -2.14,0.33 -4.73,0.46 -7.91,0.46 -3.05,0 -5.64,-0.13 -7.78,-0.46 -2.15,-0.32 -3.9,-0.71 -5.13,-1.16 -1.3,-0.46 -2.14,-1.04 -2.66,-1.82 -0.52,-0.78 -0.78,-1.62 -0.78,-2.66l0 -213.42 -69.08 0c-0.98,0 -1.89,-0.26 -2.73,-0.78 -0.84,-0.45 -1.49,-1.3 -2.01,-2.34 -0.45,-1.1 -0.91,-2.53 -1.23,-4.28 -0.33,-1.75 -0.46,-3.82 -0.46,-6.23 0,-2.4 0.13,-4.54 0.46,-6.35 0.32,-1.82 0.78,-3.31 1.23,-4.41 0.52,-1.17 1.17,-2.01 2.01,-2.47 0.84,-0.52 1.75,-0.78 2.73,-0.78l170.86 0c0.98,0 1.88,0.26 2.73,0.78 0.84,0.46 1.49,1.3 2.07,2.47 0.59,1.1 0.98,2.59 1.24,4.41 0.26,1.81 0.39,3.95 0.39,6.35z"/>
   <path id="_12" class="fil1" d="M4031.93 454.35c0,19.92 -2.33,37.82 -7,53.78 -4.74,15.96 -11.75,29.52 -21.02,40.74 -9.34,11.16 -21.02,19.78 -35.1,25.82 -14.07,6.03 -30.49,9.01 -49.23,9.01 -18.49,0 -34.45,-2.72 -47.94,-8.24 -13.56,-5.51 -24.65,-13.55 -33.47,-24.06 -8.83,-10.51 -15.38,-23.55 -19.66,-39.12 -4.35,-15.57 -6.49,-33.47 -6.49,-53.71 0,-19.4 2.34,-37.04 7.01,-52.87 4.73,-15.83 11.74,-29.26 21.15,-40.35 9.34,-11.03 21.08,-19.59 35.16,-25.62 14.01,-6.04 30.42,-9.02 49.23,-9.02 18.1,0 33.86,2.72 47.29,8.17 13.43,5.45 24.65,13.37 33.54,23.81 8.95,10.44 15.63,23.35 19.98,38.79 4.35,15.38 6.55,33.02 6.55,52.87zm-34.64 2.27c0,-13.88 -1.23,-26.85 -3.7,-38.79 -2.46,-11.94 -6.55,-22.31 -12.32,-31.14 -5.78,-8.75 -13.43,-15.63 -23.03,-20.56 -9.67,-4.93 -21.54,-7.4 -35.68,-7.4 -14.21,0 -26.08,2.66 -35.68,7.98 -9.6,5.32 -17.45,12.39 -23.42,21.22 -6.03,8.88 -10.31,19.2 -12.9,31.07 -2.6,11.8 -3.9,24.19 -3.9,37.23 0,14.47 1.24,27.7 3.64,39.83 2.4,12.2 6.42,22.64 12.13,31.47 5.64,8.75 13.29,15.56 22.83,20.43 9.54,4.86 21.54,7.33 35.94,7.33 14.34,0 26.34,-2.66 36.07,-7.98 9.73,-5.32 17.58,-12.45 23.54,-21.54 5.91,-9.01 10.19,-19.52 12.72,-31.39 2.53,-11.87 3.76,-24.46 3.76,-37.76z"/>
  </g>
 </g>
</svg>
