<?xml version="1.0" encoding="UTF-8"?>
<!DOCTYPE svg PUBLIC "-//W3C//DTD SVG 1.1//EN" "http://www.w3.org/Graphics/SVG/1.1/DTD/svg11.dtd">
<!-- Creator: CorelDRAW 2021 (64-Bit) -->
<svg xmlns="http://www.w3.org/2000/svg" xml:space="preserve" width="27mm" height="6mm" version="1.1" style="shape-rendering:geometricPrecision; text-rendering:geometricPrecision; image-rendering:optimizeQuality; fill-rule:evenodd; clip-rule:evenodd"
viewBox="0 0 2700 600"
 xmlns:xlink="http://www.w3.org/1999/xlink"
 xmlns:xodm="http://www.corel.com/coreldraw/odm/2003">
 <defs>
  <style type="text/css">
   <![CDATA[
    .fil4 {fill:#02A4EF;fill-rule:nonzero}
    .fil3 {fill:#777777;fill-rule:nonzero}
    .fil2 {fill:#80BA01;fill-rule:nonzero}
    .fil0 {fill:#F25022;fill-rule:nonzero}
    .fil1 {fill:#FEFEFE;fill-rule:nonzero}
    .fil5 {fill:#FFB902;fill-rule:nonzero}
   ]]>
  </style>
 </defs>
 <g id="Capa_x0020_1">
  <metadata id="CorelCorpID_0Corel-Layer"/>
  <g id="_2300300223728">
   <path class="fil0" d="M5.19 18.62l272.28 0c-0.02,90.76 0,181.52 -0.02,272.28 -90.74,0 -181.5,0 -272.26,0l0 -272.28z"/>
   <path class="fil1" d="M277.47 18.62l27.8 0c0,90.76 -0.02,181.52 0.02,272.28 90.74,0 181.5,-0.01 272.24,0 0.04,-90.76 0.02,-181.52 0.02,-272.28l2107.92 0 0 211.76c-19.42,0.06 -38.86,-0.15 -58.27,0.13 -0.43,-24.58 -0.05,-49.16 -0.21,-73.72 -19.43,5.85 -38.74,12.09 -58.27,17.65 -0.47,18.64 -0.04,37.3 -0.24,55.94 -28.72,-0.02 -57.44,0.03 -86.14,-0.03 0.34,-14.69 -1.03,-29.49 1.09,-44.09 1.74,-11.51 8.43,-23.03 19.64,-27.47 14.15,-5.81 29.95,-1.95 43.4,3.97 -0.08,-16.83 0.13,-33.65 -0.11,-50.47 -28.3,-7.78 -60.73,-6.26 -85.84,10.08 -16.18,10.37 -27.91,26.95 -33.19,45.33 -6.25,20.36 -3.07,41.86 -4.06,62.76 -13.63,-0.1 -27.24,-0.23 -40.82,0.08 0.15,15.74 0.08,31.47 0.02,47.18 13.67,0.28 27.33,-0.05 40.98,0.22 -0.11,66.19 -0.02,132.37 -0.02,198.57 19.63,0 39.27,0 58.89,0 0,-66.21 -0.02,-132.43 0.02,-198.64 28.7,-0.05 57.44,-0.03 86.18,-0.02 0.07,42.21 -0.09,84.4 0.05,126.59 0.26,19.66 3.62,40.67 16.63,56.19 11.27,13.74 29.16,20.02 46.43,21.29 18.21,1.3 37.01,-0.93 53.84,-8.24l0 117.3 -2107.92 0c0,-90.76 0,-181.52 0,-272.28 -90.76,0 -181.52,-0.01 -272.26,0.02 -0.04,90.74 0,181.5 -0.02,272.26l-27.8 0c0,-90.76 0.02,-181.5 0,-272.26 -90.76,-0.05 -181.52,0 -272.28,-0.03l0 -27.79c90.76,0 181.52,0 272.26,0 0.02,-90.76 0,-181.52 0.02,-272.28z"/>
   <path class="fil2" d="M305.27 18.62l272.28 0c0,90.76 0.02,181.52 -0.02,272.28 -90.74,-0.01 -181.5,0 -272.24,0 -0.04,-90.76 -0.02,-181.52 -0.02,-272.28z"/>
   <path class="fil3" d="M2460.52 122.37c25.11,-16.34 57.54,-17.86 85.84,-10.08 0.24,16.82 0.03,33.64 0.11,50.47 -13.45,-5.92 -29.25,-9.78 -43.4,-3.97 -11.21,4.44 -17.9,15.96 -19.64,27.47 -2.12,14.6 -0.75,29.4 -1.09,44.09 28.7,0.06 57.42,0.01 86.14,0.03 0.2,-18.64 -0.23,-37.3 0.24,-55.94 19.53,-5.56 38.84,-11.8 58.27,-17.65 0.16,24.56 -0.22,49.14 0.21,73.72 19.41,-0.28 38.85,-0.07 58.27,-0.13l0 47.82c-19.5,-0.8 -39.01,-0.22 -58.5,-0.28 0.09,27.49 0.02,54.98 0.03,82.48 0.31,15.23 -0.82,30.53 0.97,45.71 1.08,8.95 4.33,18.86 12.72,23.48 14.05,7.87 31.88,4.44 44.78,-4.2l0 48.29c-16.83,7.31 -35.63,9.54 -53.84,8.24 -17.27,-1.27 -35.16,-7.55 -46.43,-21.29 -13.01,-15.52 -16.37,-36.53 -16.63,-56.19 -0.14,-42.19 0.02,-84.38 -0.05,-126.59 -28.74,-0.01 -57.48,-0.03 -86.18,0.02 -0.04,66.21 -0.02,132.43 -0.02,198.64 -19.62,0 -39.26,0 -58.89,0 0,-66.2 -0.09,-132.38 0.02,-198.57 -13.65,-0.27 -27.31,0.06 -40.98,-0.22 0.06,-15.71 0.13,-31.44 -0.02,-47.18 13.58,-0.31 27.19,-0.18 40.82,-0.08 0.99,-20.9 -2.19,-42.4 4.06,-62.76 5.28,-18.38 17.01,-34.96 33.19,-45.33z"/>
   <path class="fil3" d="M1199.74 125.8c11.87,-1.8 24.72,2.26 32.59,11.55 9.22,10.17 10.92,26.36 4.09,38.25 -7.56,13.41 -24.47,19.64 -39.2,16.42 -15.29,-2.75 -28.03,-16.96 -27.34,-32.81 -0.44,-16.68 13.51,-31.54 29.86,-33.41z"/>
   <path class="fil3" d="M748.44 133.1c28.55,0 57.09,0 85.64,0 26.66,67.68 53.51,135.3 80.2,202.99 6.82,16.92 13.19,34.04 20.34,50.84 34.29,-84.58 69.08,-168.95 103.11,-253.64 27.45,-0.44 54.93,-0.1 82.4,-0.16 -0.06,114.45 -0.03,228.91 -0.02,343.37 -19.82,-0.05 -39.62,0.16 -59.42,-0.12 0.21,-84.46 -0.02,-168.93 0.1,-253.41 0.03,-3.79 -0.1,-7.59 -0.37,-11.38 -1.15,1.77 -2.19,3.6 -3.09,5.5 -34.03,86.46 -68.71,172.67 -102.55,259.21 -14.09,0.51 -28.21,0.03 -42.32,0.26 -35.11,-86.46 -69.78,-173.11 -104.71,-259.64 -0.91,-1.8 -1.89,-3.55 -2.96,-5.23 -0.72,37.01 -0.11,74.05 -0.31,111.05 0.02,51.25 -0.03,102.5 0.02,153.76 -18.69,0.04 -37.39,0 -56.06,0.01 -0.02,-114.47 -0.03,-228.94 0,-343.41z"/>
   <path class="fil3" d="M1361.8 230.15c28.42,-8.09 59.07,-7.77 87.47,0.26 5.85,1.64 11.53,3.91 16.79,7 -0.32,18.76 0,37.53 -0.17,56.31 -18.99,-14.51 -43.08,-23.7 -67.22,-20.66 -19.16,1.74 -37.45,11.68 -48.91,27.17 -14.73,19.19 -18.13,44.69 -15.6,68.17 1.9,18.38 9.5,36.75 23.79,48.93 14.85,13.2 35.67,17.87 55.1,16.4 19.2,-2.21 37.31,-10.33 52.84,-21.68 0.16,17.77 -0.09,35.55 0.13,53.33 -24.08,14.32 -52.94,18.02 -80.5,16.66 -28.19,-1.49 -56.3,-12.17 -76.71,-31.99 -22.17,-21.37 -34.21,-51.85 -35.63,-82.39 -1.44,-31.74 5.02,-64.85 23.29,-91.36 15.3,-22.62 39.24,-38.63 65.33,-46.15z"/>
   <path class="fil3" d="M1760.76 225.92c28.26,-3.6 58.07,-2 84.3,9.94 22.77,10.27 41.22,29.25 51.43,51.99 10.91,24.2 13.56,51.38 11.72,77.62 -1.81,25.63 -9.87,51.3 -25.89,71.66 -16.41,21.62 -41.13,36.27 -67.61,41.72 -22.63,4.71 -46.31,4.69 -68.94,-0.07 -27.08,-5.78 -52.15,-21.5 -68.03,-44.36 -18.64,-26.49 -23.94,-60.18 -21.57,-91.92 1.6,-26.94 9.98,-54.08 27.18,-75.21 18.84,-23.66 47.73,-37.63 77.41,-41.37z"/>
   <path class="fil3" d="M2005.04 226.41c27.24,-4.8 55.74,-1.28 81.5,8.48 0.04,18.06 0,36.1 0.02,54.13 -17.99,-12.38 -39.99,-19.03 -61.84,-18.26 -11,0.42 -23.12,5.08 -28.12,15.55 -4,10.35 -1.23,23.92 8.53,30.12 16.7,11.17 36.62,15.91 53.92,25.92 13.61,7.65 26.84,17.66 33.72,32.09 12.98,27.01 7.48,62.71 -15.31,82.86 -21.77,20.34 -53.11,25.97 -81.94,24.89 -20.48,-1.33 -41.05,-5.37 -59.87,-13.74 0.07,-18.99 -0.11,-37.96 0.09,-56.93 15.84,11.5 34.09,19.73 53.42,23.06 13.47,2.19 28.1,2.29 40.65,-3.73 12.01,-5.97 14.16,-23.02 7.02,-33.46 -6.67,-8.04 -16.46,-12.47 -25.71,-16.82 -17.33,-7.8 -35.57,-14.33 -50.81,-26.02 -10.72,-8.36 -18.83,-20.13 -21.99,-33.41 -4.72,-19.57 -3.26,-41.64 8.13,-58.74 13,-19.94 35.59,-31.89 58.59,-35.99z"/>
   <path class="fil3" d="M2230.11 225.84c29.4,-3.65 60.59,-1.67 87.41,11.87 23.39,11.69 41.53,32.82 50.59,57.25 7.07,18.69 9.56,38.87 9.15,58.77 0.06,29.73 -7.98,60.25 -26.63,83.83 -17.47,22.83 -44.2,37.66 -72.41,42.32 -27.59,4.46 -56.73,3.3 -82.93,-7.02 -26.57,-10.45 -48.64,-31.77 -59.82,-58.03 -11.67,-26.77 -12.9,-56.9 -9.26,-85.5 3.8,-28.6 16.75,-56.56 38.84,-75.58 18.09,-15.88 41.37,-24.87 65.06,-27.91z"/>
   <path class="fil3" d="M1597.74 234.16c16.25,-9.76 36.91,-10.58 54.65,-4.61 -0.08,19.64 0,39.28 -0.05,58.92 -11.61,-7.53 -26.1,-10.75 -39.8,-9.36 -16.71,1.9 -29.96,14.74 -36.83,29.45 -7.46,15.59 -8.86,33.22 -8.39,50.26 0,39.23 0.02,78.46 0,117.69 -19.36,0 -38.7,0 -58.05,0 -0.05,-81.99 0.06,-164.01 -0.05,-246 19.38,-0.24 38.76,-0.15 58.14,-0.05 -0.09,14.08 0,28.16 -0.05,42.26 6.29,-15.32 15.66,-30.21 30.43,-38.56z"/>
   <path class="fil3" d="M1175.22 230.46c19.53,-0.08 39.07,-0.28 58.6,0.1 -0.23,81.98 -0.02,163.97 -0.1,245.95 -19.49,0 -38.99,0 -58.46,0 -0.05,-82.01 0.01,-164.02 -0.04,-246.05z"/>
   <path class="fil1" d="M1778.33 272.65c17.69,-1.16 36.53,3.85 49.25,16.72 13.61,13.37 18.87,32.78 20.33,51.29 1.05,20.27 0.2,41.38 -8.29,60.15 -5.63,12.66 -15.93,23.36 -28.93,28.42 -15.21,5.84 -32.3,6.19 -48,2.11 -15.97,-4.2 -29.53,-15.74 -36.91,-30.44 -9.48,-18.94 -10.9,-40.84 -8.94,-61.61 1.78,-18.89 8.36,-38.31 22.75,-51.35 10.43,-9.74 24.66,-14.5 38.74,-15.29z"/>
   <path class="fil1" d="M2246.01 272.7c16.63,-1.16 34.38,2.68 47.17,13.92 11.81,9.78 18.33,24.43 21.33,39.18 3.36,17.3 3.32,35.21 0.47,52.59 -2.25,12.95 -6.72,25.87 -15.22,36.13 -8.55,10.3 -21.27,16.58 -34.4,18.51 -14.11,2.11 -28.94,1.09 -42.13,-4.58 -14.22,-6.02 -25.25,-18.33 -31.05,-32.49 -6.99,-16.88 -8.38,-35.57 -6.99,-53.63 1.35,-17.48 6.3,-35.42 17.85,-49.01 10.52,-12.69 26.69,-19.7 42.97,-20.62z"/>
   <path class="fil1" d="M2626.97 277.92c19.49,0.06 39,-0.52 58.5,0.28l0 147.19c-12.9,8.64 -30.73,12.07 -44.78,4.2 -8.39,-4.62 -11.64,-14.53 -12.72,-23.48 -1.79,-15.18 -0.66,-30.48 -0.97,-45.71 -0.01,-27.5 0.06,-54.99 -0.03,-82.48z"/>
   <path class="fil4" d="M5.19 318.69c90.76,0.03 181.52,-0.02 272.28,0.03 0.02,90.76 0,181.5 0,272.26l-272.28 0 0 -272.29z"/>
   <path class="fil5" d="M305.29 318.72c90.74,-0.03 181.5,-0.02 272.26,-0.02 0,90.76 0,181.52 0,272.28l-272.28 0c0.02,-90.76 -0.02,-181.52 0.02,-272.26z"/>
  </g>
 </g>
</svg>
