<?xml version="1.0" encoding="UTF-8"?>
<!DOCTYPE svg PUBLIC "-//W3C//DTD SVG 1.1//EN" "http://www.w3.org/Graphics/SVG/1.1/DTD/svg11.dtd">
<!-- Creator: CorelDRAW 2021 (64-Bit) -->
<svg xmlns="http://www.w3.org/2000/svg" xml:space="preserve" width="44.193mm" height="9.121mm" version="1.1" style="shape-rendering:geometricPrecision; text-rendering:geometricPrecision; image-rendering:optimizeQuality; fill-rule:evenodd; clip-rule:evenodd"
viewBox="0 0 4419.3 912.1"
 xmlns:xlink="http://www.w3.org/1999/xlink"
 xmlns:xodm="http://www.corel.com/coreldraw/odm/2003">
 <defs>
  <style type="text/css">
   <![CDATA[
    .str0 {stroke:#FEFEFE;stroke-width:7.62;stroke-miterlimit:22.9256}
    .fil0 {fill:#325094}
    .fil1 {fill:#FEFEFE;fill-rule:nonzero}
   ]]>
  </style>
    <mask id="id0">
  <linearGradient id="id1" gradientUnits="userSpaceOnUse" x1="77.54" y1="434.73" x2="-4.88" y2="434.72">
   <stop offset="0" style="stop-opacity:1; stop-color:white"/>
   <stop offset="1" style="stop-opacity:0; stop-color:white"/>
  </linearGradient>
     <rect style="fill:url(#id1)" x="-8.69" y="-2.67" width="4436.39" height="919.74"/>
    </mask>
 </defs>
 <g id="Capa_x0020_1">
  <metadata id="CorelCorpID_0Corel-Layer"/>
  <g id="_2300553905584">
   <polygon class="fil0 str0" style="mask:url(#id0)" points="4423.89,1.14 -4.88,1.14 -4.88,913.26 4423.89,913.26 "/>
   <path class="fil1" d="M2335.26 334.59c0,11.48 -2.14,21.73 -6.36,30.75 -4.28,8.95 -10.18,16.6 -17.71,22.9 -7.52,6.22 -16.41,10.96 -26.59,14.14 -10.25,3.18 -21.22,4.73 -33.02,4.73 -8.24,0 -15.9,-0.71 -22.9,-2.07 -7.07,-1.43 -13.37,-3.18 -18.88,-5.19 -5.51,-2.01 -10.12,-4.15 -13.88,-6.29 -3.7,-2.21 -6.36,-4.03 -7.79,-5.58 -1.49,-1.5 -2.53,-3.44 -3.24,-5.78 -0.71,-2.33 -1.04,-5.45 -1.04,-9.34 0,-2.79 0.13,-5.12 0.39,-6.94 0.26,-1.82 0.65,-3.31 1.1,-4.41 0.52,-1.17 1.17,-1.95 1.95,-2.4 0.78,-0.45 1.62,-0.65 2.66,-0.65 1.75,0 4.28,1.1 7.53,3.24 3.17,2.14 7.33,4.48 12.45,7.01 5.06,2.47 11.16,4.87 18.36,7.07 7.13,2.21 15.44,3.31 24.78,3.31 7.13,0 13.62,-0.97 19.52,-2.86 5.91,-1.88 10.97,-4.54 15.18,-8.04 4.29,-3.44 7.53,-7.72 9.8,-12.78 2.27,-5.06 3.44,-10.83 3.44,-17.25 0,-6.94 -1.56,-12.91 -4.74,-17.84 -3.18,-4.93 -7.33,-9.28 -12.52,-13.04 -5.25,-3.7 -11.16,-7.14 -17.77,-10.25 -6.68,-3.12 -13.49,-6.23 -20.44,-9.47 -6.94,-3.25 -13.75,-6.81 -20.3,-10.77 -6.62,-3.89 -12.52,-8.5 -17.71,-13.82 -5.19,-5.32 -9.41,-11.55 -12.58,-18.75 -3.25,-7.13 -4.87,-15.69 -4.87,-25.68 0,-10.32 1.88,-19.47 5.58,-27.51 3.76,-7.98 8.95,-14.72 15.57,-20.17 6.68,-5.45 14.59,-9.6 23.74,-12.46 9.21,-2.85 19.07,-4.28 29.71,-4.28 5.45,0 10.9,0.45 16.41,1.43 5.52,0.97 10.71,2.2 15.57,3.82 4.87,1.56 9.21,3.38 13.04,5.32 3.76,1.95 6.29,3.57 7.46,4.74 1.23,1.23 2.01,2.14 2.4,2.85 0.39,0.72 0.65,1.63 0.91,2.66 0.26,1.11 0.45,2.4 0.58,3.96 0.13,1.49 0.2,3.44 0.2,5.9 0,2.27 -0.07,4.28 -0.26,6.1 -0.2,1.75 -0.52,3.24 -0.91,4.48 -0.32,1.16 -0.91,2.07 -1.56,2.66 -0.71,0.58 -1.49,0.84 -2.4,0.84 -1.42,0 -3.57,-0.91 -6.55,-2.66 -2.98,-1.82 -6.62,-3.76 -10.96,-6.03 -4.28,-2.21 -9.41,-4.22 -15.31,-6.04 -5.84,-1.88 -12.46,-2.78 -19.85,-2.78 -6.81,0 -12.78,0.9 -17.84,2.72 -5.06,1.88 -9.28,4.28 -12.59,7.33 -3.24,3.05 -5.7,6.62 -7.39,10.77 -1.62,4.22 -2.47,8.63 -2.47,13.3 0,6.81 1.56,12.71 4.74,17.64 3.18,4.93 7.39,9.28 12.65,13.11 5.32,3.82 11.29,7.26 18.03,10.44 6.68,3.18 13.56,6.36 20.57,9.6 6.94,3.24 13.81,6.75 20.5,10.64 6.74,3.83 12.71,8.43 18.03,13.69 5.25,5.25 9.47,11.41 12.71,18.61 3.25,7.14 4.87,15.57 4.87,25.37z"/>
   <path id="_1" class="fil1" d="M2518.78 390.05c0,2.34 -0.13,4.35 -0.39,6.04 -0.26,1.68 -0.71,3.11 -1.3,4.28 -0.65,1.16 -1.36,1.94 -2.2,2.46 -0.85,0.52 -1.75,0.78 -2.79,0.78l-118.13 0c-2.92,0 -5.71,-0.97 -8.3,-2.92 -2.6,-2.01 -3.9,-5.45 -3.9,-10.38l0 -219.39c0,-4.93 1.3,-8.37 3.9,-10.38 2.59,-1.94 5.38,-2.92 8.3,-2.92l116.77 0c1.03,0 1.94,0.26 2.79,0.78 0.84,0.52 1.49,1.3 2.01,2.47 0.45,1.16 0.9,2.59 1.23,4.28 0.32,1.68 0.45,3.83 0.45,6.36 0,2.33 -0.13,4.28 -0.45,6.03 -0.33,1.68 -0.78,3.11 -1.23,4.21 -0.52,1.04 -1.24,1.82 -2.01,2.34 -0.85,0.52 -1.76,0.78 -2.79,0.78l-96.27 0 0 77.06 82.64 0c1.04,0 1.95,0.26 2.79,0.85 0.78,0.58 1.49,1.36 2.08,2.4 0.58,1.04 0.97,2.4 1.23,4.15 0.26,1.82 0.39,3.89 0.39,6.29 0,2.34 -0.13,4.28 -0.39,5.9 -0.26,1.69 -0.65,2.99 -1.23,4.03 -0.59,1.03 -1.3,1.75 -2.08,2.2 -0.84,0.46 -1.75,0.65 -2.79,0.65l-82.64 0 0 87.96 97.63 0c1.04,0 1.94,0.26 2.79,0.78 0.84,0.52 1.55,1.3 2.2,2.34 0.59,1.1 1.04,2.53 1.3,4.21 0.26,1.69 0.39,3.83 0.39,6.36z"/>
   <path id="_2" class="fil1" d="M2751.72 191.23c0,2.4 -0.12,4.54 -0.38,6.35 -0.26,1.82 -0.65,3.38 -1.11,4.61 -0.52,1.17 -1.16,2.01 -1.94,2.53 -0.72,0.52 -1.56,0.78 -2.47,0.78 -1.49,0 -4.02,-1.24 -7.59,-3.64 -3.57,-2.4 -8.3,-5.12 -14.27,-8.04 -5.97,-2.92 -13.1,-5.64 -21.41,-8.04 -8.3,-2.4 -18.16,-3.64 -29.51,-3.64 -13.63,0 -25.76,2.47 -36.52,7.4 -10.77,4.99 -19.92,11.81 -27.38,20.56 -7.52,8.76 -13.23,19.14 -17.25,31.21 -3.96,12.06 -5.97,25.1 -5.97,39.18 0,15.76 2.2,29.71 6.55,41.9 4.41,12.13 10.44,22.45 18.23,30.82 7.72,8.36 16.93,14.72 27.7,19 10.7,4.35 22.51,6.49 35.29,6.49 7.65,0 15.37,-0.91 23.15,-2.79 7.79,-1.82 15.05,-4.61 21.8,-8.24l0 -71.87 -56.95 0c-2.21,0 -3.83,-1.11 -4.87,-3.25 -1.1,-2.14 -1.62,-5.51 -1.62,-10.12 0,-2.4 0.13,-4.47 0.39,-6.16 0.26,-1.69 0.65,-3.11 1.23,-4.22 0.58,-1.03 1.23,-1.81 2.01,-2.33 0.71,-0.52 1.69,-0.78 2.86,-0.78l78.03 0c1.43,0 2.79,0.26 4.22,0.78 1.36,0.52 2.66,1.23 3.76,2.27 1.17,1.04 2.08,2.4 2.66,4.15 0.65,1.82 0.98,3.83 0.98,6.1l0 93.87c0,3.3 -0.59,6.16 -1.69,8.56 -1.17,2.4 -3.57,4.54 -7.27,6.36 -3.63,1.81 -8.43,3.82 -14.27,5.96 -5.84,2.21 -11.8,4.03 -18.03,5.58 -6.23,1.49 -12.52,2.66 -18.81,3.38 -6.36,0.77 -12.65,1.16 -18.82,1.16 -19.07,0 -36.06,-2.92 -50.98,-8.82 -14.99,-5.9 -27.64,-14.34 -37.95,-25.23 -10.32,-10.9 -18.23,-23.94 -23.68,-39.19 -5.45,-15.24 -8.17,-32.17 -8.17,-50.98 0,-19.53 2.91,-37.24 8.82,-53.07 5.9,-15.83 14.2,-29.32 24.91,-40.54 10.7,-11.16 23.55,-19.79 38.53,-25.95 15.05,-6.16 31.66,-9.21 49.89,-9.21 9.4,0 18.16,0.84 26.4,2.47 8.24,1.68 15.57,3.63 21.99,5.83 6.36,2.27 11.74,4.67 16.15,7.33 4.35,2.6 7.33,4.74 9.02,6.43 1.62,1.62 2.79,3.56 3.37,5.7 0.65,2.15 0.97,5.26 0.97,9.35z"/>
   <path id="_3" class="fil1" d="M2997.64 312.66c0,14.92 -2.2,28.29 -6.55,40.03 -4.34,11.67 -10.64,21.6 -18.75,29.71 -8.1,8.11 -17.96,14.27 -29.64,18.42 -11.61,4.22 -24.85,6.29 -39.7,6.29 -13.56,0 -25.88,-1.94 -37.04,-5.9 -11.16,-3.89 -20.7,-9.73 -28.67,-17.39 -7.98,-7.65 -14.15,-17.25 -18.43,-28.8 -4.34,-11.48 -6.48,-24.78 -6.48,-39.89l0 -152.58c0,-1.03 0.25,-1.94 0.77,-2.66 0.52,-0.78 1.37,-1.36 2.66,-1.81 1.3,-0.46 2.92,-0.85 5,-1.17 2.01,-0.32 4.67,-0.45 8.04,-0.45 3.05,0 5.65,0.13 7.79,0.45 2.2,0.32 3.89,0.71 5.06,1.17 1.23,0.45 2.07,1.03 2.59,1.81 0.52,0.72 0.78,1.63 0.78,2.66l0 148.56c0,11.35 1.36,21.34 4.15,29.77 2.79,8.5 6.81,15.57 12.07,21.21 5.19,5.65 11.54,9.86 18.94,12.72 7.33,2.85 15.63,4.28 24.91,4.28 9.41,0 17.84,-1.36 25.23,-4.15 7.4,-2.79 13.63,-7.01 18.75,-12.59 5.13,-5.58 9.02,-12.45 11.74,-20.69 2.73,-8.24 4.09,-17.84 4.09,-28.87l0 -150.24c0,-1.03 0.26,-1.94 0.78,-2.66 0.52,-0.78 1.36,-1.36 2.66,-1.81 1.3,-0.46 2.98,-0.85 5.06,-1.17 2.14,-0.32 4.73,-0.45 7.98,-0.45 3.05,0 5.58,0.13 7.72,0.45 2.07,0.32 3.76,0.71 4.93,1.17 1.23,0.45 2.14,1.03 2.72,1.81 0.58,0.72 0.84,1.63 0.84,2.66l0 150.11z"/>
   <path id="_4" class="fil1" d="M3226.57 398.68c0,1.04 -0.19,1.88 -0.58,2.66 -0.39,0.78 -1.17,1.43 -2.47,1.95 -1.23,0.45 -3.05,0.84 -5.32,1.1 -2.27,0.26 -5.32,0.39 -9.08,0.39 -3.31,0 -6.03,-0.13 -8.11,-0.39 -2.07,-0.26 -3.76,-0.65 -5.06,-1.23 -1.23,-0.59 -2.2,-1.37 -2.92,-2.4 -0.71,-0.98 -1.29,-2.27 -1.81,-3.77l-22.58 -58.06c-2.66,-6.61 -5.45,-12.65 -8.3,-18.16 -2.86,-5.51 -6.23,-10.25 -10.19,-14.27 -3.89,-4.02 -8.56,-7.07 -13.88,-9.34 -5.32,-2.21 -11.74,-3.31 -19.2,-3.31l-21.86 0 0 104.83c0,1.04 -0.26,1.88 -0.84,2.66 -0.59,0.78 -1.5,1.36 -2.66,1.82 -1.24,0.45 -2.86,0.84 -4.93,1.16 -2.14,0.33 -4.74,0.46 -7.92,0.46 -3.18,0 -5.77,-0.13 -7.91,-0.46 -2.08,-0.32 -3.76,-0.71 -5,-1.16 -1.29,-0.46 -2.14,-1.04 -2.66,-1.82 -0.52,-0.71 -0.78,-1.62 -0.78,-2.66l0 -227.76c0,-4.93 1.3,-8.37 3.9,-10.38 2.59,-1.94 5.38,-2.92 8.3,-2.92l52.29 0c6.22,0 11.35,0.13 15.5,0.46 4.09,0.32 7.78,0.71 11.09,1.03 9.54,1.69 17.91,4.29 25.24,7.79 7.26,3.57 13.36,8.04 18.29,13.49 4.99,5.45 8.69,11.68 11.16,18.75 2.46,7.01 3.69,14.79 3.69,23.29 0,8.17 -1.1,15.57 -3.3,22.12 -2.27,6.49 -5.45,12.26 -9.6,17.25 -4.22,5 -9.22,9.35 -15.05,13.04 -5.84,3.64 -12.33,6.75 -19.59,9.28 4.08,1.82 7.71,4.02 11.02,6.75 3.31,2.72 6.36,6.03 9.21,9.79 2.86,3.83 5.58,8.24 8.11,13.17 2.53,4.93 5.06,10.51 7.59,16.74l22.06 54.23c1.75,4.54 2.92,7.78 3.37,9.6 0.52,1.81 0.78,3.24 0.78,4.28zm-49.24 -172.94c0,-9.6 -2.14,-17.78 -6.48,-24.46 -4.28,-6.62 -11.48,-11.42 -21.67,-14.34 -3.18,-0.9 -6.75,-1.49 -10.7,-1.88 -4.02,-0.39 -9.21,-0.58 -15.7,-0.58l-27.57 0 0 82.9 31.91 0c8.63,0 16.09,-1.03 22.39,-3.11 6.22,-2.14 11.48,-5.06 15.63,-8.76 4.22,-3.76 7.26,-8.17 9.28,-13.23 1.94,-5.06 2.91,-10.58 2.91,-16.54z"/>
   <path id="_5" class="fil1" d="M3306.56 398.68c0,1.04 -0.26,1.95 -0.78,2.66 -0.52,0.78 -1.36,1.36 -2.66,1.82 -1.23,0.45 -2.92,0.84 -4.99,1.16 -2.14,0.33 -4.74,0.46 -7.92,0.46 -3.05,0 -5.64,-0.13 -7.78,-0.46 -2.14,-0.32 -3.89,-0.71 -5.13,-1.16 -1.29,-0.46 -2.14,-1.04 -2.66,-1.82 -0.52,-0.71 -0.78,-1.62 -0.78,-2.66l0 -236.13c0,-1.03 0.26,-1.94 0.85,-2.66 0.58,-0.78 1.55,-1.36 2.85,-1.81 1.36,-0.46 3.05,-0.85 5.13,-1.17 2.07,-0.32 4.6,-0.45 7.52,-0.45 3.18,0 5.78,0.13 7.92,0.45 2.07,0.32 3.76,0.71 4.99,1.17 1.3,0.45 2.14,1.03 2.66,1.81 0.52,0.72 0.78,1.63 0.78,2.66l0 236.13z"/>
   <path id="_6" class="fil1" d="M3561.11 276.98c0,21.28 -2.73,39.9 -8.18,55.79 -5.45,15.96 -13.43,29.13 -23.87,39.57 -10.44,10.45 -23.29,18.3 -38.47,23.49 -15.24,5.19 -33.34,7.78 -54.36,7.78l-52.09 0c-2.92,0 -5.71,-0.97 -8.3,-2.92 -2.6,-2.01 -3.9,-5.45 -3.9,-10.38l0 -219.39c0,-4.93 1.3,-8.37 3.9,-10.38 2.59,-1.94 5.38,-2.92 8.3,-2.92l55.66 0c21.34,0 39.31,2.73 54.04,8.24 14.66,5.52 26.98,13.49 36.97,23.81 9.93,10.31 17.45,22.83 22.58,37.56 5.12,14.66 7.72,31.27 7.72,49.75zm-34.26 1.43c0,-13.3 -1.62,-25.69 -4.93,-37.17 -3.3,-11.48 -8.49,-21.41 -15.5,-29.77 -7.07,-8.37 -15.96,-14.86 -26.79,-19.6 -10.77,-4.67 -24.65,-7 -41.65,-7l-33.34 0 0 191.49 33.67 0c15.76,0 28.99,-1.94 39.83,-5.9 10.77,-3.89 19.78,-9.92 26.98,-18.03 7.27,-8.11 12.72,-18.3 16.28,-30.56 3.64,-12.19 5.45,-26.72 5.45,-43.46z"/>
   <path id="_7" class="fil1" d="M3789.9 392.06c0.97,2.79 1.56,5 1.62,6.75 0.07,1.69 -0.45,2.98 -1.42,3.89 -1.04,0.85 -2.73,1.43 -5.06,1.69 -2.34,0.26 -5.45,0.39 -9.41,0.39 -3.89,0 -7.07,-0.07 -9.41,-0.26 -2.33,-0.2 -4.08,-0.52 -5.32,-0.97 -1.23,-0.46 -2.07,-1.04 -2.66,-1.82 -0.58,-0.78 -1.1,-1.69 -1.62,-2.86l-21.08 -59.87 -102.24 0 -20.17 59.1c-0.39,1.16 -0.84,2.14 -1.49,2.98 -0.65,0.84 -1.56,1.49 -2.79,2.08 -1.17,0.58 -2.92,0.97 -5.13,1.23 -2.2,0.26 -5.06,0.39 -8.62,0.39 -3.7,0 -6.69,-0.13 -9.02,-0.46 -2.34,-0.32 -4.02,-0.9 -4.93,-1.81 -0.97,-0.91 -1.43,-2.21 -1.36,-3.89 0.06,-1.76 0.58,-3.96 1.62,-6.75l82.45 -228.54c0.52,-1.43 1.23,-2.59 2.01,-3.44 0.84,-0.9 2.01,-1.62 3.63,-2.07 1.56,-0.52 3.57,-0.91 6.1,-1.11 2.46,-0.19 5.58,-0.25 9.41,-0.25 4.02,0 7.39,0.06 10.05,0.25 2.66,0.2 4.8,0.59 6.42,1.11 1.69,0.45 2.92,1.23 3.83,2.14 0.91,0.97 1.62,2.14 2.08,3.5l82.51 228.6zm-105.87 -201.74l-0.19 0 -42.36 122.6 85.5 0 -42.95 -122.6z"/>
   <path id="_8" class="fil1" d="M4020.13 276.98c0,21.28 -2.73,39.9 -8.18,55.79 -5.45,15.96 -13.43,29.13 -23.87,39.57 -10.44,10.45 -23.29,18.3 -38.47,23.49 -15.24,5.19 -33.34,7.78 -54.36,7.78l-52.09 0c-2.92,0 -5.71,-0.97 -8.3,-2.92 -2.6,-2.01 -3.9,-5.45 -3.9,-10.38l0 -219.39c0,-4.93 1.3,-8.37 3.9,-10.38 2.59,-1.94 5.38,-2.92 8.3,-2.92l55.66 0c21.34,0 39.31,2.73 54.04,8.24 14.66,5.52 26.98,13.49 36.97,23.81 9.93,10.31 17.45,22.83 22.58,37.56 5.12,14.66 7.72,31.27 7.72,49.75zm-34.26 1.43c0,-13.3 -1.62,-25.69 -4.93,-37.17 -3.3,-11.48 -8.49,-21.41 -15.5,-29.77 -7.07,-8.37 -15.96,-14.86 -26.79,-19.6 -10.77,-4.67 -24.65,-7 -41.65,-7l-33.34 0 0 191.49 33.67 0c15.76,0 28.99,-1.94 39.83,-5.9 10.77,-3.89 19.78,-9.92 26.98,-18.03 7.27,-8.11 12.72,-18.3 16.28,-30.56 3.64,-12.19 5.45,-26.72 5.45,-43.46z"/>
   <path id="_9" class="fil1" d="M1861.2 759.63c0,1.04 -0.26,1.95 -0.78,2.66 -0.52,0.78 -1.36,1.36 -2.66,1.82 -1.23,0.45 -2.92,0.84 -4.99,1.16 -2.14,0.33 -4.74,0.46 -7.92,0.46 -3.05,0 -5.64,-0.13 -7.78,-0.46 -2.14,-0.32 -3.89,-0.71 -5.13,-1.16 -1.29,-0.46 -2.14,-1.04 -2.66,-1.82 -0.52,-0.71 -0.78,-1.62 -0.78,-2.66l0 -236.13c0,-1.03 0.26,-1.94 0.85,-2.66 0.58,-0.78 1.55,-1.36 2.85,-1.81 1.36,-0.46 3.05,-0.85 5.13,-1.17 2.07,-0.32 4.6,-0.45 7.52,-0.45 3.18,0 5.78,0.13 7.92,0.45 2.07,0.32 3.76,0.71 4.99,1.17 1.3,0.45 2.14,1.03 2.66,1.81 0.52,0.72 0.78,1.63 0.78,2.66l0 236.13z"/>
   <path id="_10" class="fil1" d="M2112.63 750.87c0,2.53 -0.45,4.74 -1.3,6.49 -0.84,1.75 -1.94,3.24 -3.3,4.35 -1.37,1.16 -2.92,1.94 -4.61,2.46 -1.75,0.52 -3.44,0.78 -5.12,0.78l-10.84 0c-3.37,0 -6.36,-0.33 -8.95,-1.04 -2.53,-0.71 -4.93,-1.94 -7.27,-3.76 -2.27,-1.82 -4.6,-4.28 -6.87,-7.4 -2.27,-3.11 -4.74,-7.2 -7.33,-12.13l-75.12 -139.92c-3.96,-7.2 -7.92,-14.79 -11.87,-22.71 -4.02,-7.91 -7.72,-15.63 -11.16,-23.09l-0.39 0c0.26,9.08 0.45,18.42 0.58,27.96 0.13,9.47 0.2,18.94 0.2,28.28l0 148.49c0,0.91 -0.26,1.75 -0.78,2.59 -0.58,0.78 -1.49,1.43 -2.72,1.89 -1.3,0.45 -2.92,0.84 -5,1.16 -2.07,0.33 -4.73,0.46 -7.91,0.46 -3.25,0 -5.91,-0.13 -7.98,-0.46 -2.08,-0.32 -3.7,-0.71 -4.87,-1.16 -1.23,-0.46 -2.07,-1.11 -2.66,-1.89 -0.52,-0.84 -0.78,-1.68 -0.78,-2.59l0 -226.98c0,-5.06 1.43,-8.69 4.35,-10.83 2.86,-2.14 5.97,-3.25 9.41,-3.25l16.08 0c3.77,0 6.95,0.33 9.48,0.98 2.59,0.58 4.86,1.68 6.87,3.11 2.01,1.43 4.02,3.5 5.91,6.1 1.88,2.59 3.89,5.84 5.96,9.79l57.74 107.95c3.57,6.61 7,13.04 10.31,19.33 3.31,6.29 6.55,12.45 9.6,18.55 3.05,6.03 6.1,12.07 9.08,17.97 3.05,5.84 5.97,11.81 8.96,17.77l0.19 0c-0.26,-10.05 -0.45,-20.43 -0.52,-31.26 -0.06,-10.84 -0.06,-21.28 -0.06,-31.27l0 -133.31c0,-0.91 0.26,-1.75 0.78,-2.46 0.58,-0.78 1.49,-1.43 2.72,-2.01 1.3,-0.59 2.98,-0.98 5,-1.24 2.07,-0.26 4.8,-0.39 8.17,-0.39 2.92,0 5.45,0.13 7.59,0.39 2.14,0.26 3.83,0.65 4.99,1.24 1.24,0.58 2.08,1.23 2.66,2.01 0.52,0.71 0.78,1.55 0.78,2.46l0 226.59z"/>
   <path id="_11" class="fil1" d="M2307.05 532.58c0,2.41 -0.13,4.48 -0.39,6.23 -0.26,1.75 -0.72,3.18 -1.3,4.28 -0.65,1.04 -1.36,1.89 -2.21,2.34 -0.84,0.52 -1.68,0.78 -2.59,0.78l-90.04 0 0 83.68 85.11 0c0.91,0 1.75,0.19 2.59,0.65 0.85,0.45 1.56,1.17 2.21,2.2 0.58,1.04 1.04,2.4 1.3,4.09 0.26,1.75 0.39,3.89 0.39,6.55 0,2.47 -0.13,4.54 -0.39,6.23 -0.26,1.69 -0.72,3.11 -1.3,4.22 -0.65,1.03 -1.36,1.88 -2.21,2.46 -0.84,0.59 -1.68,0.85 -2.59,0.85l-85.11 0 0 102.49c0,0.91 -0.26,1.75 -0.78,2.59 -0.52,0.78 -1.36,1.43 -2.66,1.89 -1.23,0.45 -2.92,0.84 -4.93,1.16 -2.01,0.33 -4.67,0.46 -7.98,0.46 -3.05,0 -5.64,-0.13 -7.78,-0.46 -2.14,-0.32 -3.89,-0.71 -5.13,-1.16 -1.29,-0.46 -2.14,-1.11 -2.66,-1.89 -0.52,-0.84 -0.78,-1.68 -0.78,-2.59l0 -227.76c0,-4.93 1.3,-8.37 3.9,-10.38 2.59,-1.94 5.38,-2.92 8.3,-2.92l110.54 0c0.91,0 1.75,0.26 2.59,0.78 0.85,0.46 1.56,1.3 2.21,2.47 0.58,1.1 1.04,2.59 1.3,4.41 0.26,1.81 0.39,3.95 0.39,6.35z"/>
   <path id="_12" class="fil1" d="M2559.13 638.71c0,19.92 -2.33,37.82 -7,53.78 -4.74,15.96 -11.75,29.52 -21.02,40.74 -9.34,11.16 -21.02,19.78 -35.1,25.82 -14.07,6.03 -30.49,9.01 -49.23,9.01 -18.49,0 -34.45,-2.72 -47.94,-8.24 -13.56,-5.51 -24.65,-13.55 -33.47,-24.06 -8.83,-10.51 -15.38,-23.55 -19.66,-39.12 -4.35,-15.57 -6.49,-33.47 -6.49,-53.71 0,-19.4 2.34,-37.04 7.01,-52.87 4.73,-15.83 11.74,-29.26 21.15,-40.35 9.34,-11.03 21.08,-19.59 35.16,-25.62 14.01,-6.04 30.42,-9.02 49.23,-9.02 18.1,0 33.86,2.72 47.29,8.17 13.43,5.45 24.65,13.37 33.54,23.81 8.95,10.44 15.63,23.35 19.98,38.79 4.35,15.38 6.55,33.02 6.55,52.87zm-34.64 2.27c0,-13.88 -1.23,-26.85 -3.7,-38.79 -2.46,-11.94 -6.55,-22.31 -12.32,-31.14 -5.78,-8.75 -13.43,-15.63 -23.03,-20.56 -9.67,-4.93 -21.54,-7.4 -35.68,-7.4 -14.21,0 -26.08,2.66 -35.68,7.98 -9.6,5.32 -17.45,12.39 -23.42,21.22 -6.03,8.88 -10.31,19.2 -12.9,31.07 -2.6,11.8 -3.9,24.19 -3.9,37.23 0,14.47 1.24,27.7 3.64,39.83 2.4,12.2 6.42,22.64 12.13,31.47 5.64,8.75 13.29,15.56 22.83,20.43 9.54,4.86 21.54,7.33 35.94,7.33 14.34,0 26.34,-2.66 36.07,-7.98 9.73,-5.32 17.58,-12.45 23.54,-21.54 5.91,-9.01 10.19,-19.52 12.72,-31.39 2.53,-11.87 3.76,-24.46 3.76,-37.76z"/>
   <path id="_13" class="fil1" d="M2775.02 759.63c0,1.04 -0.19,1.88 -0.58,2.66 -0.39,0.78 -1.17,1.43 -2.47,1.95 -1.23,0.45 -3.05,0.84 -5.32,1.1 -2.27,0.26 -5.32,0.39 -9.08,0.39 -3.31,0 -6.03,-0.13 -8.11,-0.39 -2.07,-0.26 -3.76,-0.65 -5.06,-1.23 -1.23,-0.59 -2.2,-1.37 -2.92,-2.4 -0.71,-0.98 -1.29,-2.27 -1.81,-3.77l-22.58 -58.06c-2.66,-6.61 -5.45,-12.65 -8.3,-18.16 -2.86,-5.51 -6.23,-10.25 -10.19,-14.27 -3.89,-4.02 -8.56,-7.07 -13.88,-9.34 -5.32,-2.21 -11.74,-3.31 -19.2,-3.31l-21.86 0 0 104.83c0,1.04 -0.26,1.88 -0.84,2.66 -0.59,0.78 -1.5,1.36 -2.66,1.82 -1.24,0.45 -2.86,0.84 -4.93,1.16 -2.14,0.33 -4.74,0.46 -7.92,0.46 -3.18,0 -5.77,-0.13 -7.91,-0.46 -2.08,-0.32 -3.76,-0.71 -5,-1.16 -1.29,-0.46 -2.14,-1.04 -2.66,-1.82 -0.52,-0.71 -0.78,-1.62 -0.78,-2.66l0 -227.76c0,-4.93 1.3,-8.37 3.9,-10.38 2.59,-1.94 5.38,-2.92 8.3,-2.92l52.29 0c6.22,0 11.35,0.13 15.5,0.46 4.09,0.32 7.78,0.71 11.09,1.03 9.54,1.69 17.91,4.29 25.24,7.79 7.26,3.57 13.36,8.04 18.29,13.49 4.99,5.45 8.69,11.68 11.16,18.75 2.46,7.01 3.69,14.79 3.69,23.29 0,8.17 -1.1,15.57 -3.3,22.12 -2.27,6.49 -5.45,12.26 -9.6,17.25 -4.22,5 -9.22,9.35 -15.05,13.04 -5.84,3.64 -12.33,6.75 -19.59,9.28 4.08,1.82 7.71,4.02 11.02,6.75 3.31,2.72 6.36,6.03 9.21,9.79 2.86,3.83 5.58,8.24 8.11,13.17 2.53,4.93 5.06,10.51 7.59,16.74l22.06 54.23c1.75,4.54 2.92,7.78 3.37,9.6 0.52,1.81 0.78,3.24 0.78,4.28zm-49.24 -172.94c0,-9.6 -2.14,-17.78 -6.48,-24.46 -4.28,-6.62 -11.48,-11.42 -21.67,-14.34 -3.18,-0.9 -6.75,-1.49 -10.7,-1.88 -4.02,-0.39 -9.21,-0.58 -15.7,-0.58l-27.57 0 0 82.9 31.91 0c8.63,0 16.09,-1.03 22.39,-3.11 6.22,-2.14 11.48,-5.06 15.63,-8.76 4.22,-3.76 7.26,-8.17 9.28,-13.23 1.94,-5.06 2.91,-10.58 2.91,-16.54z"/>
   <path id="_14" class="fil1" d="M3089.71 759.63c0,1.04 -0.26,1.95 -0.78,2.66 -0.52,0.78 -1.43,1.36 -2.72,1.82 -1.3,0.45 -2.99,0.84 -5,1.16 -2.01,0.33 -4.67,0.46 -7.91,0.46 -3.05,0 -5.65,-0.13 -7.79,-0.46 -2.14,-0.32 -3.83,-0.71 -5.06,-1.16 -1.23,-0.46 -2.14,-1.04 -2.66,-1.82 -0.52,-0.71 -0.78,-1.62 -0.78,-2.66l0 -214.27 -0.39 0 -86.6 215.24c-0.32,0.91 -0.9,1.62 -1.55,2.27 -0.72,0.65 -1.75,1.17 -3.05,1.63 -1.36,0.45 -2.92,0.77 -4.8,0.97 -1.82,0.19 -4.02,0.26 -6.55,0.26 -2.66,0 -4.93,-0.13 -6.82,-0.39 -1.88,-0.26 -3.5,-0.59 -4.73,-1.04 -1.3,-0.45 -2.27,-0.97 -2.99,-1.62 -0.64,-0.65 -1.16,-1.3 -1.42,-2.08l-82.91 -215.24 -0.19 0 0 214.27c0,1.04 -0.26,1.95 -0.78,2.66 -0.52,0.78 -1.43,1.36 -2.72,1.82 -1.3,0.45 -3.05,0.84 -5.13,1.16 -2.07,0.33 -4.73,0.46 -7.98,0.46 -3.18,0 -5.77,-0.13 -7.85,-0.46 -2.07,-0.32 -3.76,-0.71 -4.99,-1.16 -1.23,-0.46 -2.08,-1.04 -2.53,-1.82 -0.46,-0.71 -0.72,-1.62 -0.72,-2.66l0 -226.2c0,-5.39 1.43,-9.15 4.22,-11.42 2.86,-2.27 6.03,-3.44 9.47,-3.44l20.11 0c4.09,0 7.72,0.39 10.77,1.17 3.11,0.71 5.77,1.95 8.11,3.57 2.33,1.69 4.28,3.76 5.77,6.29 1.56,2.53 2.92,5.51 4.09,8.95l70.38 178.14 0.98 0 73.04 -177.62c1.43,-3.76 2.98,-7 4.67,-9.66 1.69,-2.66 3.5,-4.8 5.51,-6.36 1.95,-1.62 4.22,-2.73 6.62,-3.44 2.47,-0.71 5.32,-1.04 8.5,-1.04l21.08 0c1.88,0 3.76,0.26 5.52,0.85 1.68,0.58 3.17,1.49 4.41,2.66 1.23,1.23 2.2,2.72 2.98,4.6 0.78,1.82 1.17,4.09 1.17,6.75l0 226.2z"/>
   <path id="_15" class="fil1" d="M3339.26 753.01c0.97,2.79 1.56,5 1.62,6.75 0.07,1.69 -0.45,2.98 -1.42,3.89 -1.04,0.85 -2.73,1.43 -5.06,1.69 -2.34,0.26 -5.45,0.39 -9.41,0.39 -3.89,0 -7.07,-0.07 -9.41,-0.26 -2.33,-0.2 -4.08,-0.52 -5.32,-0.97 -1.23,-0.46 -2.07,-1.04 -2.66,-1.82 -0.58,-0.78 -1.1,-1.69 -1.62,-2.86l-21.08 -59.87 -102.24 0 -20.17 59.1c-0.39,1.16 -0.84,2.14 -1.49,2.98 -0.65,0.84 -1.56,1.49 -2.79,2.08 -1.17,0.58 -2.92,0.97 -5.13,1.23 -2.2,0.26 -5.06,0.39 -8.62,0.39 -3.7,0 -6.69,-0.13 -9.02,-0.46 -2.34,-0.32 -4.02,-0.9 -4.93,-1.81 -0.97,-0.91 -1.43,-2.21 -1.36,-3.89 0.06,-1.76 0.58,-3.96 1.62,-6.75l82.45 -228.54c0.52,-1.43 1.23,-2.59 2.01,-3.44 0.84,-0.9 2.01,-1.62 3.63,-2.07 1.56,-0.52 3.57,-0.91 6.1,-1.11 2.46,-0.19 5.58,-0.25 9.41,-0.25 4.02,0 7.39,0.06 10.05,0.25 2.66,0.2 4.8,0.59 6.42,1.11 1.69,0.45 2.92,1.23 3.83,2.14 0.91,0.97 1.62,2.14 2.08,3.5l82.51 228.6zm-105.87 -201.74l-0.19 0 -42.36 122.6 85.5 0 -42.95 -122.6zm22.71 -100.55c1.36,-1.69 2.72,-2.92 4.08,-3.83 1.3,-0.91 2.79,-1.62 4.48,-2.07 1.62,-0.52 3.63,-0.91 5.9,-1.11 2.27,-0.19 5,-0.26 8.18,-0.26 3.82,0 6.81,0.26 8.95,0.85 2.14,0.58 3.7,1.29 4.6,2.2 0.85,0.91 1.17,1.88 0.85,3.05 -0.33,1.17 -1.04,2.34 -2.21,3.63l-43.2 40.42c-1.3,1.23 -2.47,2.27 -3.57,2.92 -1.04,0.71 -2.27,1.29 -3.7,1.75 -1.36,0.45 -2.98,0.78 -4.86,0.97 -1.82,0.2 -4.09,0.26 -6.75,0.26 -2.92,0 -5.19,-0.13 -6.87,-0.45 -1.63,-0.33 -2.79,-0.85 -3.38,-1.56 -0.65,-0.71 -0.84,-1.56 -0.58,-2.59 0.26,-0.98 0.91,-2.21 2.07,-3.57l36.01 -40.61z"/>
   <path id="_16" class="fil1" d="M3504.03 532.58c0,2.41 -0.13,4.48 -0.39,6.23 -0.26,1.75 -0.65,3.18 -1.24,4.28 -0.58,1.04 -1.23,1.89 -2.07,2.34 -0.85,0.52 -1.75,0.78 -2.73,0.78l-69.08 0 0 213.42c0,1.04 -0.26,1.88 -0.78,2.66 -0.52,0.78 -1.36,1.36 -2.66,1.82 -1.23,0.45 -2.92,0.84 -5,1.16 -2.14,0.33 -4.73,0.46 -7.91,0.46 -3.05,0 -5.64,-0.13 -7.78,-0.46 -2.15,-0.32 -3.9,-0.71 -5.13,-1.16 -1.3,-0.46 -2.14,-1.04 -2.66,-1.82 -0.52,-0.78 -0.78,-1.62 -0.78,-2.66l0 -213.42 -69.08 0c-0.98,0 -1.89,-0.26 -2.73,-0.78 -0.84,-0.45 -1.49,-1.3 -2.01,-2.34 -0.45,-1.1 -0.91,-2.53 -1.23,-4.28 -0.33,-1.75 -0.46,-3.82 -0.46,-6.23 0,-2.4 0.13,-4.54 0.46,-6.35 0.32,-1.82 0.78,-3.31 1.23,-4.41 0.52,-1.17 1.17,-2.01 2.01,-2.47 0.84,-0.52 1.75,-0.78 2.73,-0.78l170.86 0c0.98,0 1.88,0.26 2.73,0.78 0.84,0.46 1.49,1.3 2.07,2.47 0.59,1.1 0.98,2.59 1.24,4.41 0.26,1.81 0.39,3.95 0.39,6.35z"/>
   <path id="_17" class="fil1" d="M3572.27 759.63c0,1.04 -0.26,1.95 -0.78,2.66 -0.52,0.78 -1.36,1.36 -2.66,1.82 -1.23,0.45 -2.92,0.84 -4.99,1.16 -2.14,0.33 -4.74,0.46 -7.92,0.46 -3.05,0 -5.64,-0.13 -7.78,-0.46 -2.14,-0.32 -3.89,-0.71 -5.13,-1.16 -1.29,-0.46 -2.14,-1.04 -2.66,-1.82 -0.52,-0.71 -0.78,-1.62 -0.78,-2.66l0 -236.13c0,-1.03 0.26,-1.94 0.85,-2.66 0.58,-0.78 1.55,-1.36 2.85,-1.81 1.36,-0.46 3.05,-0.85 5.13,-1.17 2.07,-0.32 4.6,-0.45 7.52,-0.45 3.18,0 5.78,0.13 7.92,0.45 2.07,0.32 3.76,0.71 4.99,1.17 1.3,0.45 2.14,1.03 2.66,1.81 0.52,0.72 0.78,1.63 0.78,2.66l0 236.13z"/>
   <path id="_18" class="fil1" d="M3801.91 729.92c0,2.01 -0.07,3.76 -0.2,5.32 -0.13,1.49 -0.32,2.79 -0.65,3.96 -0.32,1.1 -0.71,2.14 -1.23,3.04 -0.52,0.85 -1.43,1.95 -2.66,3.18 -1.3,1.3 -3.96,3.25 -7.98,5.84 -4.09,2.6 -9.15,5.13 -15.18,7.59 -6.03,2.47 -12.91,4.54 -20.69,6.23 -7.85,1.75 -16.35,2.59 -25.63,2.59 -15.95,0 -30.42,-2.66 -43.26,-7.98 -12.85,-5.31 -23.88,-13.16 -32.89,-23.61 -9.09,-10.38 -16.09,-23.22 -20.96,-38.47 -4.86,-15.31 -7.33,-32.88 -7.33,-52.8 0,-20.43 2.66,-38.6 7.92,-54.62 5.25,-15.96 12.65,-29.52 22.18,-40.61 9.54,-11.09 20.89,-19.53 34.19,-25.36 13.23,-5.84 27.96,-8.76 44.05,-8.76 7.13,0 14.07,0.65 20.75,1.95 6.75,1.36 12.98,2.98 18.69,4.99 5.71,2.01 10.77,4.35 15.24,7.01 4.41,2.59 7.53,4.8 9.21,6.48 1.75,1.69 2.86,2.99 3.38,3.9 0.52,0.84 0.9,1.88 1.23,3.11 0.32,1.23 0.58,2.66 0.78,4.28 0.19,1.69 0.26,3.63 0.26,5.9 0,2.6 -0.13,4.74 -0.39,6.49 -0.26,1.82 -0.65,3.31 -1.17,4.54 -0.45,1.17 -1.1,2.08 -1.82,2.66 -0.65,0.59 -1.55,0.84 -2.53,0.84 -1.81,0 -4.28,-1.23 -7.52,-3.69 -3.18,-2.47 -7.27,-5.19 -12.33,-8.18 -5.06,-2.98 -11.15,-5.71 -18.35,-8.17 -7.27,-2.47 -15.9,-3.7 -25.95,-3.7 -11.03,0 -21.02,2.21 -29.97,6.55 -9.02,4.42 -16.74,10.84 -23.1,19.34 -6.35,8.49 -11.35,18.87 -14.85,31.13 -3.5,12.26 -5.26,26.28 -5.26,41.97 0,15.64 1.69,29.45 5.06,41.46 3.38,12 8.24,22.05 14.53,30.1 6.3,8.04 14.08,14.14 23.23,18.29 9.21,4.09 19.59,6.16 31.2,6.16 9.8,0 18.42,-1.23 25.75,-3.63 7.33,-2.4 13.56,-5.06 18.69,-8.05 5.19,-2.98 9.4,-5.64 12.71,-8.04 3.37,-2.4 5.97,-3.63 7.85,-3.63 0.91,0 1.69,0.19 2.34,0.58 0.64,0.39 1.1,1.1 1.49,2.14 0.39,1.11 0.71,2.6 0.91,4.48 0.19,1.88 0.26,4.28 0.26,7.2z"/>
   <path id="_19" class="fil1" d="M4029.34 753.01c0.97,2.79 1.56,5 1.62,6.75 0.07,1.69 -0.45,2.98 -1.42,3.89 -1.04,0.85 -2.73,1.43 -5.06,1.69 -2.34,0.26 -5.45,0.39 -9.41,0.39 -3.89,0 -7.07,-0.07 -9.41,-0.26 -2.33,-0.2 -4.08,-0.52 -5.32,-0.97 -1.23,-0.46 -2.07,-1.04 -2.66,-1.82 -0.58,-0.78 -1.1,-1.69 -1.62,-2.86l-21.08 -59.87 -102.24 0 -20.17 59.1c-0.39,1.16 -0.84,2.14 -1.49,2.98 -0.65,0.84 -1.56,1.49 -2.79,2.08 -1.17,0.58 -2.92,0.97 -5.13,1.23 -2.2,0.26 -5.06,0.39 -8.62,0.39 -3.7,0 -6.69,-0.13 -9.02,-0.46 -2.34,-0.32 -4.02,-0.9 -4.93,-1.81 -0.97,-0.91 -1.43,-2.21 -1.36,-3.89 0.06,-1.76 0.58,-3.96 1.62,-6.75l82.45 -228.54c0.52,-1.43 1.23,-2.59 2.01,-3.44 0.84,-0.9 2.01,-1.62 3.63,-2.07 1.56,-0.52 3.57,-0.91 6.1,-1.11 2.46,-0.19 5.58,-0.25 9.41,-0.25 4.02,0 7.39,0.06 10.05,0.25 2.66,0.2 4.8,0.59 6.42,1.11 1.69,0.45 2.92,1.23 3.83,2.14 0.91,0.97 1.62,2.14 2.08,3.5l82.51 228.6zm-105.87 -201.74l-0.19 0 -42.36 122.6 85.5 0 -42.95 -122.6z"/>
  </g>
 </g>
</svg>
