<?xml version="1.0" encoding="UTF-8"?>
<!DOCTYPE svg PUBLIC "-//W3C//DTD SVG 1.1//EN" "http://www.w3.org/Graphics/SVG/1.1/DTD/svg11.dtd">
<!-- Creator: CorelDRAW 2021 (64-Bit) -->
<svg xmlns="http://www.w3.org/2000/svg" xml:space="preserve" width="44.193mm" height="9.121mm" version="1.1" style="shape-rendering:geometricPrecision; text-rendering:geometricPrecision; image-rendering:optimizeQuality; fill-rule:evenodd; clip-rule:evenodd"
viewBox="0 0 4419.3 912.1"
 xmlns:xlink="http://www.w3.org/1999/xlink"
 xmlns:xodm="http://www.corel.com/coreldraw/odm/2003">
 <defs>
  <style type="text/css">
   <![CDATA[
    .str0 {stroke:#FEFEFE;stroke-width:7.62;stroke-miterlimit:22.9256}
    .fil0 {fill:#325094}
    .fil1 {fill:#FEFEFE;fill-rule:nonzero}
   ]]>
  </style>
    <mask id="id0">
  <linearGradient id="id1" gradientUnits="userSpaceOnUse" x1="77.54" y1="434.73" x2="-4.88" y2="434.72">
   <stop offset="0" style="stop-opacity:1; stop-color:white"/>
   <stop offset="1" style="stop-opacity:0; stop-color:white"/>
  </linearGradient>
     <rect style="fill:url(#id1)" x="-8.69" y="-2.67" width="4436.39" height="919.74"/>
    </mask>
 </defs>
 <g id="Capa_x0020_1">
  <metadata id="CorelCorpID_0Corel-Layer"/>
  <g id="_2193599883328">
   <polygon class="fil0 str0" style="mask:url(#id0)" points="4423.89,1.14 -4.88,1.14 -4.88,913.26 4423.89,913.26 "/>
   <path class="fil1" d="M1810.29 511.18c0,11.48 -2.14,21.73 -6.36,30.75 -4.28,8.95 -10.18,16.6 -17.71,22.9 -7.52,6.22 -16.41,10.96 -26.59,14.14 -10.25,3.18 -21.22,4.73 -33.02,4.73 -8.24,0 -15.9,-0.71 -22.9,-2.07 -7.07,-1.43 -13.37,-3.18 -18.88,-5.19 -5.51,-2.01 -10.12,-4.15 -13.88,-6.29 -3.7,-2.21 -6.36,-4.03 -7.79,-5.58 -1.49,-1.5 -2.53,-3.44 -3.24,-5.78 -0.71,-2.33 -1.04,-5.45 -1.04,-9.34 0,-2.79 0.13,-5.12 0.39,-6.94 0.26,-1.82 0.65,-3.31 1.1,-4.41 0.52,-1.17 1.17,-1.95 1.95,-2.4 0.78,-0.45 1.62,-0.65 2.66,-0.65 1.75,0 4.28,1.1 7.53,3.24 3.17,2.14 7.33,4.48 12.45,7.01 5.06,2.47 11.16,4.87 18.36,7.07 7.13,2.21 15.44,3.31 24.78,3.31 7.13,0 13.62,-0.97 19.52,-2.86 5.91,-1.88 10.97,-4.54 15.18,-8.04 4.29,-3.44 7.53,-7.72 9.8,-12.78 2.27,-5.06 3.44,-10.83 3.44,-17.25 0,-6.94 -1.56,-12.91 -4.74,-17.84 -3.18,-4.93 -7.33,-9.28 -12.52,-13.04 -5.25,-3.7 -11.16,-7.14 -17.77,-10.25 -6.68,-3.12 -13.49,-6.23 -20.44,-9.47 -6.94,-3.25 -13.75,-6.81 -20.3,-10.77 -6.62,-3.89 -12.52,-8.5 -17.71,-13.82 -5.19,-5.32 -9.41,-11.55 -12.58,-18.75 -3.25,-7.13 -4.87,-15.69 -4.87,-25.68 0,-10.32 1.88,-19.47 5.58,-27.51 3.76,-7.98 8.95,-14.72 15.57,-20.17 6.68,-5.45 14.59,-9.6 23.74,-12.46 9.21,-2.85 19.07,-4.28 29.71,-4.28 5.45,0 10.9,0.45 16.41,1.43 5.52,0.97 10.71,2.2 15.57,3.82 4.87,1.56 9.21,3.38 13.04,5.32 3.76,1.95 6.29,3.57 7.46,4.74 1.23,1.23 2.01,2.14 2.4,2.85 0.39,0.72 0.65,1.63 0.91,2.66 0.26,1.11 0.45,2.4 0.58,3.96 0.13,1.49 0.2,3.44 0.2,5.9 0,2.27 -0.07,4.28 -0.26,6.1 -0.2,1.75 -0.52,3.24 -0.91,4.48 -0.32,1.16 -0.91,2.07 -1.56,2.66 -0.71,0.58 -1.49,0.84 -2.4,0.84 -1.42,0 -3.57,-0.91 -6.55,-2.66 -2.98,-1.82 -6.62,-3.76 -10.96,-6.03 -4.28,-2.21 -9.41,-4.22 -15.31,-6.04 -5.84,-1.88 -12.46,-2.78 -19.85,-2.78 -6.81,0 -12.78,0.9 -17.84,2.72 -5.06,1.88 -9.28,4.28 -12.59,7.33 -3.24,3.05 -5.7,6.62 -7.39,10.77 -1.62,4.22 -2.47,8.63 -2.47,13.3 0,6.81 1.56,12.71 4.74,17.64 3.18,4.93 7.39,9.28 12.65,13.11 5.32,3.82 11.29,7.26 18.03,10.44 6.68,3.18 13.56,6.36 20.57,9.6 6.94,3.24 13.81,6.75 20.5,10.64 6.74,3.83 12.71,8.43 18.03,13.69 5.25,5.25 9.47,11.41 12.71,18.61 3.25,7.14 4.87,15.57 4.87,25.37z"/>
   <path id="_1" class="fil1" d="M1889.5 575.27c0,1.04 -0.26,1.95 -0.78,2.66 -0.52,0.78 -1.36,1.36 -2.66,1.82 -1.23,0.45 -2.92,0.84 -4.99,1.16 -2.14,0.33 -4.74,0.46 -7.92,0.46 -3.05,0 -5.64,-0.13 -7.78,-0.46 -2.14,-0.32 -3.89,-0.71 -5.13,-1.16 -1.29,-0.46 -2.14,-1.04 -2.66,-1.82 -0.52,-0.71 -0.78,-1.62 -0.78,-2.66l0 -236.13c0,-1.03 0.26,-1.94 0.85,-2.66 0.58,-0.78 1.55,-1.36 2.85,-1.81 1.36,-0.46 3.05,-0.85 5.13,-1.17 2.07,-0.32 4.6,-0.45 7.52,-0.45 3.18,0 5.78,0.13 7.92,0.45 2.07,0.32 3.76,0.71 4.99,1.17 1.3,0.45 2.14,1.03 2.66,1.81 0.52,0.72 0.78,1.63 0.78,2.66l0 236.13z"/>
   <path id="_2" class="fil1" d="M2087.22 511.18c0,11.48 -2.14,21.73 -6.36,30.75 -4.28,8.95 -10.18,16.6 -17.71,22.9 -7.52,6.22 -16.41,10.96 -26.59,14.14 -10.25,3.18 -21.22,4.73 -33.02,4.73 -8.24,0 -15.9,-0.71 -22.9,-2.07 -7.07,-1.43 -13.37,-3.18 -18.88,-5.19 -5.51,-2.01 -10.12,-4.15 -13.88,-6.29 -3.7,-2.21 -6.36,-4.03 -7.79,-5.58 -1.49,-1.5 -2.53,-3.44 -3.24,-5.78 -0.71,-2.33 -1.04,-5.45 -1.04,-9.34 0,-2.79 0.13,-5.12 0.39,-6.94 0.26,-1.82 0.65,-3.31 1.1,-4.41 0.52,-1.17 1.17,-1.95 1.95,-2.4 0.78,-0.45 1.62,-0.65 2.66,-0.65 1.75,0 4.28,1.1 7.53,3.24 3.17,2.14 7.33,4.48 12.45,7.01 5.06,2.47 11.16,4.87 18.36,7.07 7.13,2.21 15.44,3.31 24.78,3.31 7.13,0 13.62,-0.97 19.52,-2.86 5.91,-1.88 10.97,-4.54 15.18,-8.04 4.29,-3.44 7.53,-7.72 9.8,-12.78 2.27,-5.06 3.44,-10.83 3.44,-17.25 0,-6.94 -1.56,-12.91 -4.74,-17.84 -3.18,-4.93 -7.33,-9.28 -12.52,-13.04 -5.25,-3.7 -11.16,-7.14 -17.77,-10.25 -6.68,-3.12 -13.49,-6.23 -20.44,-9.47 -6.94,-3.25 -13.75,-6.81 -20.3,-10.77 -6.62,-3.89 -12.52,-8.5 -17.71,-13.82 -5.19,-5.32 -9.41,-11.55 -12.58,-18.75 -3.25,-7.13 -4.87,-15.69 -4.87,-25.68 0,-10.32 1.88,-19.47 5.58,-27.51 3.76,-7.98 8.95,-14.72 15.57,-20.17 6.68,-5.45 14.59,-9.6 23.74,-12.46 9.21,-2.85 19.07,-4.28 29.71,-4.28 5.45,0 10.9,0.45 16.41,1.43 5.52,0.97 10.71,2.2 15.57,3.82 4.87,1.56 9.21,3.38 13.04,5.32 3.76,1.95 6.29,3.57 7.46,4.74 1.23,1.23 2.01,2.14 2.4,2.85 0.39,0.72 0.65,1.63 0.91,2.66 0.26,1.11 0.45,2.4 0.58,3.96 0.13,1.49 0.2,3.44 0.2,5.9 0,2.27 -0.07,4.28 -0.26,6.1 -0.2,1.75 -0.52,3.24 -0.91,4.48 -0.32,1.16 -0.91,2.07 -1.56,2.66 -0.71,0.58 -1.49,0.84 -2.4,0.84 -1.42,0 -3.57,-0.91 -6.55,-2.66 -2.98,-1.82 -6.62,-3.76 -10.96,-6.03 -4.28,-2.21 -9.41,-4.22 -15.31,-6.04 -5.84,-1.88 -12.46,-2.78 -19.85,-2.78 -6.81,0 -12.78,0.9 -17.84,2.72 -5.06,1.88 -9.28,4.28 -12.59,7.33 -3.24,3.05 -5.7,6.62 -7.39,10.77 -1.62,4.22 -2.47,8.63 -2.47,13.3 0,6.81 1.56,12.71 4.74,17.64 3.18,4.93 7.39,9.28 12.65,13.11 5.32,3.82 11.29,7.26 18.03,10.44 6.68,3.18 13.56,6.36 20.57,9.6 6.94,3.24 13.81,6.75 20.5,10.64 6.74,3.83 12.71,8.43 18.03,13.69 5.25,5.25 9.47,11.41 12.71,18.61 3.25,7.14 4.87,15.57 4.87,25.37z"/>
   <path id="_3" class="fil1" d="M2285.21 348.22c0,2.41 -0.13,4.48 -0.39,6.23 -0.26,1.75 -0.65,3.18 -1.24,4.28 -0.58,1.04 -1.23,1.89 -2.07,2.34 -0.85,0.52 -1.75,0.78 -2.73,0.78l-69.08 0 0 213.42c0,1.04 -0.26,1.88 -0.78,2.66 -0.52,0.78 -1.36,1.36 -2.66,1.82 -1.23,0.45 -2.92,0.84 -5,1.16 -2.14,0.33 -4.73,0.46 -7.91,0.46 -3.05,0 -5.64,-0.13 -7.78,-0.46 -2.15,-0.32 -3.9,-0.71 -5.13,-1.16 -1.3,-0.46 -2.14,-1.04 -2.66,-1.82 -0.52,-0.78 -0.78,-1.62 -0.78,-2.66l0 -213.42 -69.08 0c-0.98,0 -1.89,-0.26 -2.73,-0.78 -0.84,-0.45 -1.49,-1.3 -2.01,-2.34 -0.45,-1.1 -0.91,-2.53 -1.23,-4.28 -0.33,-1.75 -0.46,-3.82 -0.46,-6.23 0,-2.4 0.13,-4.54 0.46,-6.35 0.32,-1.82 0.78,-3.31 1.23,-4.41 0.52,-1.17 1.17,-2.01 2.01,-2.47 0.84,-0.52 1.75,-0.78 2.73,-0.78l170.86 0c0.98,0 1.88,0.26 2.73,0.78 0.84,0.46 1.49,1.3 2.07,2.47 0.59,1.1 0.98,2.59 1.24,4.41 0.26,1.81 0.39,3.95 0.39,6.35z"/>
   <path id="_4" class="fil1" d="M2457.76 566.64c0,2.34 -0.13,4.35 -0.39,6.04 -0.26,1.68 -0.71,3.11 -1.3,4.28 -0.65,1.16 -1.36,1.94 -2.2,2.46 -0.85,0.52 -1.75,0.78 -2.79,0.78l-118.13 0c-2.92,0 -5.71,-0.97 -8.3,-2.92 -2.6,-2.01 -3.9,-5.45 -3.9,-10.38l0 -219.39c0,-4.93 1.3,-8.37 3.9,-10.38 2.59,-1.94 5.38,-2.92 8.3,-2.92l116.77 0c1.03,0 1.94,0.26 2.79,0.78 0.84,0.52 1.49,1.3 2.01,2.47 0.45,1.16 0.9,2.59 1.23,4.28 0.32,1.68 0.45,3.83 0.45,6.36 0,2.33 -0.13,4.28 -0.45,6.03 -0.33,1.68 -0.78,3.11 -1.23,4.21 -0.52,1.04 -1.24,1.82 -2.01,2.34 -0.85,0.52 -1.76,0.78 -2.79,0.78l-96.27 0 0 77.06 82.64 0c1.04,0 1.95,0.26 2.79,0.85 0.78,0.58 1.49,1.36 2.08,2.4 0.58,1.04 0.97,2.4 1.23,4.15 0.26,1.82 0.39,3.89 0.39,6.29 0,2.34 -0.13,4.28 -0.39,5.9 -0.26,1.69 -0.65,2.99 -1.23,4.03 -0.59,1.03 -1.3,1.75 -2.08,2.2 -0.84,0.46 -1.75,0.65 -2.79,0.65l-82.64 0 0 87.96 97.63 0c1.04,0 1.94,0.26 2.79,0.78 0.84,0.52 1.55,1.3 2.2,2.34 0.59,1.1 1.04,2.53 1.3,4.21 0.26,1.69 0.39,3.83 0.39,6.36z"/>
   <path id="_5" class="fil1" d="M2778.22 575.27c0,1.04 -0.26,1.95 -0.78,2.66 -0.52,0.78 -1.43,1.36 -2.72,1.82 -1.3,0.45 -2.99,0.84 -5,1.16 -2.01,0.33 -4.67,0.46 -7.91,0.46 -3.05,0 -5.65,-0.13 -7.79,-0.46 -2.14,-0.32 -3.83,-0.71 -5.06,-1.16 -1.23,-0.46 -2.14,-1.04 -2.66,-1.82 -0.52,-0.71 -0.78,-1.62 -0.78,-2.66l0 -214.27 -0.39 0 -86.6 215.24c-0.32,0.91 -0.9,1.62 -1.55,2.27 -0.72,0.65 -1.75,1.17 -3.05,1.63 -1.36,0.45 -2.92,0.77 -4.8,0.97 -1.82,0.19 -4.02,0.26 -6.55,0.26 -2.66,0 -4.93,-0.13 -6.82,-0.39 -1.88,-0.26 -3.5,-0.59 -4.73,-1.04 -1.3,-0.45 -2.27,-0.97 -2.99,-1.62 -0.64,-0.65 -1.16,-1.3 -1.42,-2.08l-82.91 -215.24 -0.19 0 0 214.27c0,1.04 -0.26,1.95 -0.78,2.66 -0.52,0.78 -1.43,1.36 -2.72,1.82 -1.3,0.45 -3.05,0.84 -5.13,1.16 -2.07,0.33 -4.73,0.46 -7.98,0.46 -3.18,0 -5.77,-0.13 -7.85,-0.46 -2.07,-0.32 -3.76,-0.71 -4.99,-1.16 -1.23,-0.46 -2.08,-1.04 -2.53,-1.82 -0.46,-0.71 -0.72,-1.62 -0.72,-2.66l0 -226.2c0,-5.39 1.43,-9.15 4.22,-11.42 2.86,-2.27 6.03,-3.44 9.47,-3.44l20.11 0c4.09,0 7.72,0.39 10.77,1.17 3.11,0.71 5.77,1.95 8.11,3.57 2.33,1.69 4.28,3.76 5.77,6.29 1.56,2.53 2.92,5.51 4.09,8.95l70.38 178.14 0.98 0 73.04 -177.62c1.43,-3.76 2.98,-7 4.67,-9.66 1.69,-2.66 3.5,-4.8 5.51,-6.36 1.95,-1.62 4.22,-2.73 6.62,-3.44 2.47,-0.71 5.32,-1.04 8.5,-1.04l21.08 0c1.88,0 3.76,0.26 5.52,0.85 1.68,0.58 3.17,1.49 4.41,2.66 1.23,1.23 2.2,2.72 2.98,4.6 0.78,1.82 1.17,4.09 1.17,6.75l0 226.2z"/>
   <path id="_6" class="fil1" d="M3027.77 568.65c0.97,2.79 1.56,5 1.62,6.75 0.07,1.69 -0.45,2.98 -1.42,3.89 -1.04,0.85 -2.73,1.43 -5.06,1.69 -2.34,0.26 -5.45,0.39 -9.41,0.39 -3.89,0 -7.07,-0.07 -9.41,-0.26 -2.33,-0.2 -4.08,-0.52 -5.32,-0.97 -1.23,-0.46 -2.07,-1.04 -2.66,-1.82 -0.58,-0.78 -1.1,-1.69 -1.62,-2.86l-21.08 -59.87 -102.24 0 -20.17 59.1c-0.39,1.16 -0.84,2.14 -1.49,2.98 -0.65,0.84 -1.56,1.49 -2.79,2.08 -1.17,0.58 -2.92,0.97 -5.13,1.23 -2.2,0.26 -5.06,0.39 -8.62,0.39 -3.7,0 -6.69,-0.13 -9.02,-0.46 -2.34,-0.32 -4.02,-0.9 -4.93,-1.81 -0.97,-0.91 -1.43,-2.21 -1.36,-3.89 0.06,-1.76 0.58,-3.96 1.62,-6.75l82.45 -228.54c0.52,-1.43 1.23,-2.59 2.01,-3.44 0.84,-0.9 2.01,-1.62 3.63,-2.07 1.56,-0.52 3.57,-0.91 6.1,-1.11 2.46,-0.19 5.58,-0.25 9.41,-0.25 4.02,0 7.39,0.06 10.05,0.25 2.66,0.2 4.8,0.59 6.42,1.11 1.69,0.45 2.92,1.23 3.83,2.14 0.91,0.97 1.62,2.14 2.08,3.5l82.51 228.6zm-105.87 -201.74l-0.19 0 -42.36 122.6 85.5 0 -42.95 -122.6z"/>
   <path id="_7" class="fil1" d="M3201.17 511.18c0,11.48 -2.14,21.73 -6.36,30.75 -4.28,8.95 -10.18,16.6 -17.71,22.9 -7.52,6.22 -16.41,10.96 -26.59,14.14 -10.25,3.18 -21.22,4.73 -33.02,4.73 -8.24,0 -15.9,-0.71 -22.9,-2.07 -7.07,-1.43 -13.37,-3.18 -18.88,-5.19 -5.51,-2.01 -10.12,-4.15 -13.88,-6.29 -3.7,-2.21 -6.36,-4.03 -7.79,-5.58 -1.49,-1.5 -2.53,-3.44 -3.24,-5.78 -0.71,-2.33 -1.04,-5.45 -1.04,-9.34 0,-2.79 0.13,-5.12 0.39,-6.94 0.26,-1.82 0.65,-3.31 1.1,-4.41 0.52,-1.17 1.17,-1.95 1.95,-2.4 0.78,-0.45 1.62,-0.65 2.66,-0.65 1.75,0 4.28,1.1 7.53,3.24 3.17,2.14 7.33,4.48 12.45,7.01 5.06,2.47 11.16,4.87 18.36,7.07 7.13,2.21 15.44,3.31 24.78,3.31 7.13,0 13.62,-0.97 19.52,-2.86 5.91,-1.88 10.97,-4.54 15.18,-8.04 4.29,-3.44 7.53,-7.72 9.8,-12.78 2.27,-5.06 3.44,-10.83 3.44,-17.25 0,-6.94 -1.56,-12.91 -4.74,-17.84 -3.18,-4.93 -7.33,-9.28 -12.52,-13.04 -5.25,-3.7 -11.16,-7.14 -17.77,-10.25 -6.68,-3.12 -13.49,-6.23 -20.44,-9.47 -6.94,-3.25 -13.75,-6.81 -20.3,-10.77 -6.62,-3.89 -12.52,-8.5 -17.71,-13.82 -5.19,-5.32 -9.41,-11.55 -12.58,-18.75 -3.25,-7.13 -4.87,-15.69 -4.87,-25.68 0,-10.32 1.88,-19.47 5.58,-27.51 3.76,-7.98 8.95,-14.72 15.57,-20.17 6.68,-5.45 14.59,-9.6 23.74,-12.46 9.21,-2.85 19.07,-4.28 29.71,-4.28 5.45,0 10.9,0.45 16.41,1.43 5.52,0.97 10.71,2.2 15.57,3.82 4.87,1.56 9.21,3.38 13.04,5.32 3.76,1.95 6.29,3.57 7.46,4.74 1.23,1.23 2.01,2.14 2.4,2.85 0.39,0.72 0.65,1.63 0.91,2.66 0.26,1.11 0.45,2.4 0.58,3.96 0.13,1.49 0.2,3.44 0.2,5.9 0,2.27 -0.07,4.28 -0.26,6.1 -0.2,1.75 -0.52,3.24 -0.91,4.48 -0.32,1.16 -0.91,2.07 -1.56,2.66 -0.71,0.58 -1.49,0.84 -2.4,0.84 -1.42,0 -3.57,-0.91 -6.55,-2.66 -2.98,-1.82 -6.62,-3.76 -10.96,-6.03 -4.28,-2.21 -9.41,-4.22 -15.31,-6.04 -5.84,-1.88 -12.46,-2.78 -19.85,-2.78 -6.81,0 -12.78,0.9 -17.84,2.72 -5.06,1.88 -9.28,4.28 -12.59,7.33 -3.24,3.05 -5.7,6.62 -7.39,10.77 -1.62,4.22 -2.47,8.63 -2.47,13.3 0,6.81 1.56,12.71 4.74,17.64 3.18,4.93 7.39,9.28 12.65,13.11 5.32,3.82 11.29,7.26 18.03,10.44 6.68,3.18 13.56,6.36 20.57,9.6 6.94,3.24 13.81,6.75 20.5,10.64 6.74,3.83 12.71,8.43 18.03,13.69 5.25,5.25 9.47,11.41 12.71,18.61 3.25,7.14 4.87,15.57 4.87,25.37z"/>
   <path id="_8" class="fil1" d="M3499.9 545.56c0,2.01 -0.07,3.76 -0.2,5.32 -0.13,1.49 -0.32,2.79 -0.65,3.96 -0.32,1.1 -0.71,2.14 -1.23,3.04 -0.52,0.85 -1.43,1.95 -2.66,3.18 -1.3,1.3 -3.96,3.25 -7.98,5.84 -4.09,2.6 -9.15,5.13 -15.18,7.59 -6.03,2.47 -12.91,4.54 -20.69,6.23 -7.85,1.75 -16.35,2.59 -25.63,2.59 -15.95,0 -30.42,-2.66 -43.26,-7.98 -12.85,-5.31 -23.88,-13.16 -32.89,-23.61 -9.09,-10.38 -16.09,-23.22 -20.96,-38.47 -4.86,-15.31 -7.33,-32.88 -7.33,-52.8 0,-20.43 2.66,-38.6 7.92,-54.62 5.25,-15.96 12.65,-29.52 22.18,-40.61 9.54,-11.09 20.89,-19.53 34.19,-25.36 13.23,-5.84 27.96,-8.76 44.05,-8.76 7.13,0 14.07,0.65 20.75,1.95 6.75,1.36 12.98,2.98 18.69,4.99 5.71,2.01 10.77,4.35 15.24,7.01 4.41,2.59 7.53,4.8 9.21,6.48 1.75,1.69 2.86,2.99 3.38,3.9 0.52,0.84 0.9,1.88 1.23,3.11 0.32,1.23 0.58,2.66 0.78,4.28 0.19,1.69 0.26,3.63 0.26,5.9 0,2.6 -0.13,4.74 -0.39,6.49 -0.26,1.82 -0.65,3.31 -1.17,4.54 -0.45,1.17 -1.1,2.08 -1.82,2.66 -0.65,0.59 -1.55,0.84 -2.53,0.84 -1.81,0 -4.28,-1.23 -7.52,-3.69 -3.18,-2.47 -7.27,-5.19 -12.33,-8.18 -5.06,-2.98 -11.15,-5.71 -18.35,-8.17 -7.27,-2.47 -15.9,-3.7 -25.95,-3.7 -11.03,0 -21.02,2.21 -29.97,6.55 -9.02,4.42 -16.74,10.84 -23.1,19.34 -6.35,8.49 -11.35,18.87 -14.85,31.13 -3.5,12.26 -5.26,26.28 -5.26,41.97 0,15.64 1.69,29.45 5.06,41.46 3.38,12 8.24,22.05 14.53,30.1 6.3,8.04 14.08,14.14 23.23,18.29 9.21,4.09 19.59,6.16 31.2,6.16 9.8,0 18.42,-1.23 25.75,-3.63 7.33,-2.4 13.56,-5.06 18.69,-8.05 5.19,-2.98 9.4,-5.64 12.71,-8.04 3.37,-2.4 5.97,-3.63 7.85,-3.63 0.91,0 1.69,0.19 2.34,0.58 0.64,0.39 1.1,1.1 1.49,2.14 0.39,1.11 0.71,2.6 0.91,4.48 0.19,1.88 0.26,4.28 0.26,7.2z"/>
   <path id="_9" class="fil1" d="M3707.42 545.56c0,2.01 -0.07,3.76 -0.2,5.32 -0.13,1.49 -0.32,2.79 -0.65,3.96 -0.32,1.1 -0.71,2.14 -1.23,3.04 -0.52,0.85 -1.43,1.95 -2.66,3.18 -1.3,1.3 -3.96,3.25 -7.98,5.84 -4.09,2.6 -9.15,5.13 -15.18,7.59 -6.03,2.47 -12.91,4.54 -20.69,6.23 -7.85,1.75 -16.35,2.59 -25.63,2.59 -15.95,0 -30.42,-2.66 -43.26,-7.98 -12.85,-5.31 -23.88,-13.16 -32.89,-23.61 -9.09,-10.38 -16.09,-23.22 -20.96,-38.47 -4.86,-15.31 -7.33,-32.88 -7.33,-52.8 0,-20.43 2.66,-38.6 7.92,-54.62 5.25,-15.96 12.65,-29.52 22.18,-40.61 9.54,-11.09 20.89,-19.53 34.19,-25.36 13.23,-5.84 27.96,-8.76 44.05,-8.76 7.13,0 14.07,0.65 20.75,1.95 6.75,1.36 12.98,2.98 18.69,4.99 5.71,2.01 10.77,4.35 15.24,7.01 4.41,2.59 7.53,4.8 9.21,6.48 1.75,1.69 2.86,2.99 3.38,3.9 0.52,0.84 0.9,1.88 1.23,3.11 0.32,1.23 0.58,2.66 0.78,4.28 0.19,1.69 0.26,3.63 0.26,5.9 0,2.6 -0.13,4.74 -0.39,6.49 -0.26,1.82 -0.65,3.31 -1.17,4.54 -0.45,1.17 -1.1,2.08 -1.82,2.66 -0.65,0.59 -1.55,0.84 -2.53,0.84 -1.81,0 -4.28,-1.23 -7.52,-3.69 -3.18,-2.47 -7.27,-5.19 -12.33,-8.18 -5.06,-2.98 -11.15,-5.71 -18.35,-8.17 -7.27,-2.47 -15.9,-3.7 -25.95,-3.7 -11.03,0 -21.02,2.21 -29.97,6.55 -9.02,4.42 -16.74,10.84 -23.1,19.34 -6.35,8.49 -11.35,18.87 -14.85,31.13 -3.5,12.26 -5.26,26.28 -5.26,41.97 0,15.64 1.69,29.45 5.06,41.46 3.38,12 8.24,22.05 14.53,30.1 6.3,8.04 14.08,14.14 23.23,18.29 9.21,4.09 19.59,6.16 31.2,6.16 9.8,0 18.42,-1.23 25.75,-3.63 7.33,-2.4 13.56,-5.06 18.69,-8.05 5.19,-2.98 9.4,-5.64 12.71,-8.04 3.37,-2.4 5.97,-3.63 7.85,-3.63 0.91,0 1.69,0.19 2.34,0.58 0.64,0.39 1.1,1.1 1.49,2.14 0.39,1.11 0.71,2.6 0.91,4.48 0.19,1.88 0.26,4.28 0.26,7.2z"/>
   <path id="_10" class="fil1" d="M3906.77 348.22c0,2.41 -0.13,4.48 -0.39,6.23 -0.26,1.75 -0.65,3.18 -1.24,4.28 -0.58,1.04 -1.23,1.89 -2.07,2.34 -0.85,0.52 -1.75,0.78 -2.73,0.78l-69.08 0 0 213.42c0,1.04 -0.26,1.88 -0.78,2.66 -0.52,0.78 -1.36,1.36 -2.66,1.82 -1.23,0.45 -2.92,0.84 -5,1.16 -2.14,0.33 -4.73,0.46 -7.91,0.46 -3.05,0 -5.64,-0.13 -7.78,-0.46 -2.15,-0.32 -3.9,-0.71 -5.13,-1.16 -1.3,-0.46 -2.14,-1.04 -2.66,-1.82 -0.52,-0.78 -0.78,-1.62 -0.78,-2.66l0 -213.42 -69.08 0c-0.98,0 -1.89,-0.26 -2.73,-0.78 -0.84,-0.45 -1.49,-1.3 -2.01,-2.34 -0.45,-1.1 -0.91,-2.53 -1.23,-4.28 -0.33,-1.75 -0.46,-3.82 -0.46,-6.23 0,-2.4 0.13,-4.54 0.46,-6.35 0.32,-1.82 0.78,-3.31 1.23,-4.41 0.52,-1.17 1.17,-2.01 2.01,-2.47 0.84,-0.52 1.75,-0.78 2.73,-0.78l170.86 0c0.98,0 1.88,0.26 2.73,0.78 0.84,0.46 1.49,1.3 2.07,2.47 0.59,1.1 0.98,2.59 1.24,4.41 0.26,1.81 0.39,3.95 0.39,6.35z"/>
   <path id="_11" class="fil1" d="M4041.7 574.49c-0.52,1.43 -1.24,2.6 -2.15,3.44 -0.84,0.91 -2.07,1.62 -3.69,2.08 -1.56,0.51 -3.57,0.9 -6.1,1.1 -2.47,0.19 -5.58,0.26 -9.41,0.26 -2.79,0 -5.19,0 -7.26,-0.07 -2.14,-0.06 -3.89,-0.26 -5.45,-0.52 -1.49,-0.26 -2.79,-0.52 -3.89,-0.84 -1.11,-0.32 -2.01,-0.71 -2.73,-1.23 -0.78,-0.52 -1.36,-1.1 -1.81,-1.82 -0.46,-0.71 -0.85,-1.56 -1.24,-2.53l-80.44 -228.6c-0.97,-2.79 -1.49,-5 -1.55,-6.75 -0.07,-1.68 0.45,-2.98 1.55,-3.89 1.17,-0.84 2.99,-1.43 5.52,-1.69 2.53,-0.25 5.97,-0.38 10.31,-0.38 3.51,0 6.36,0.06 8.44,0.25 2.07,0.2 3.69,0.59 4.86,1.11 1.1,0.45 1.95,1.17 2.53,1.94 0.58,0.85 1.1,1.88 1.62,3.18l70.52 207.07 0.39 0 68.63 -206.68c0.32,-1.43 0.78,-2.59 1.3,-3.44 0.51,-0.9 1.42,-1.62 2.65,-2.07 1.3,-0.52 3.05,-0.91 5.32,-1.11 2.27,-0.19 5.32,-0.25 9.15,-0.25 3.89,0 7.01,0.13 9.28,0.45 2.27,0.32 3.82,0.91 4.67,1.82 0.84,0.9 1.17,2.2 0.97,3.89 -0.19,1.75 -0.78,3.96 -1.82,6.74l-80.17 228.54z"/>
  </g>
 </g>
</svg>
