<?xml version="1.0" encoding="UTF-8"?>
<!DOCTYPE svg PUBLIC "-//W3C//DTD SVG 1.1//EN" "http://www.w3.org/Graphics/SVG/1.1/DTD/svg11.dtd">
<!-- Creator: CorelDRAW 2021 (64-Bit) -->
<svg xmlns="http://www.w3.org/2000/svg" xml:space="preserve" width="14mm" height="14mm" version="1.1" style="shape-rendering:geometricPrecision; text-rendering:geometricPrecision; image-rendering:optimizeQuality; fill-rule:evenodd; clip-rule:evenodd"
viewBox="0 0 1400 1400"
 xmlns:xlink="http://www.w3.org/1999/xlink"
 xmlns:xodm="http://www.corel.com/coreldraw/odm/2003">
 <defs>
  <style type="text/css">
   <![CDATA[
    .str0 {stroke:#D2D3D5;stroke-width:200;stroke-miterlimit:22.9256}
    .fil0 {fill:#D2D3D5}
    .fil3 {fill:#00AFEF}
    .fil2 {fill:url(#id0)}
    .fil1 {fill:url(#id1)}
   ]]>
  </style>
  <radialGradient id="id0" gradientUnits="userSpaceOnUse" gradientTransform="matrix(0.999998 -0 -0 0.327433 0 756)" cx="697.27" cy="1123.56" r="756.68" fx="697.27" fy="1123.56">
   <stop offset="0" style="stop-opacity:1; stop-color:#00AFEF"/>
   <stop offset="1" style="stop-opacity:1; stop-color:#325094"/>
  </radialGradient>
  <radialGradient id="id1" gradientUnits="userSpaceOnUse" gradientTransform="matrix(0.669843 -0 -0 1 230 0)" xlink:href="#id0" cx="697.83" cy="586.49" r="686.1" fx="697.83" fy="586.49">
  </radialGradient>
 </defs>
 <g id="Capa_x0020_1">
  <metadata id="CorelCorpID_0Corel-Layer"/>
  <g id="_1606502368560">
   <g>
    <path class="fil0 str0" d="M506.99 433.47c0,-106.19 82.36,-182.46 198.69,-182.46 157.95,0 246.81,192.34 128.55,302.41 -126.97,118.17 -327.24,25.42 -327.24,-119.95zm178.34 -323.71l28.14 0c46.41,1.62 91.91,11.35 131.03,29.37 81.1,37.37 130.53,89.95 168.65,163.4 12.32,23.73 26.83,76.58 26.83,104.45 0,65.25 1.53,33.55 -9.06,91.61 -17.82,97.82 -122.11,277.18 -180.2,358.61l-100.89 141.29c-10.98,13.55 -41.55,57.2 -53.62,64.74 -7.97,-11.12 -17.22,-22.49 -26.58,-34.05l-127.81 -175.02c-25.37,-39.4 -68.68,-107.12 -90.55,-147.99 -14.02,-26.19 -47.37,-90.94 -58.22,-119.3 -5.52,-14.44 -11.29,-27.7 -16.05,-43.88 -19.57,-66.58 -21.4,-68.35 -21.4,-138.95 0,-31.08 12.59,-65 23.19,-93.14 4.22,-11.2 7.02,-13.61 11.94,-24.17 14.65,-31.47 42.7,-62.69 68.16,-86.48 16.1,-15.05 26.21,-22.42 44.44,-35.05 49.73,-34.46 115.67,-53.13 182,-55.44z"/>
    <path class="fil0 str0" d="M699.37 1154.46c-25.69,0 -34.51,-17.94 -53.58,-41.24l-61.29 -78.17c-77.78,-99.72 -39.08,-83.61 -124.82,-74.82 -78.72,8.07 -202.69,36.24 -265.6,75.89 -95.34,60.09 -69.92,138.36 22.71,183.12 65.17,31.5 126.29,42.7 198.46,56.13 58.76,10.93 131.75,17.9 210.1,20.34l127.8 0c162.34,-4.98 327.44,-29.01 425.64,-76.47 29.42,-14.21 81.95,-51.92 81.95,-85.39 0,-47.82 -12.12,-68.33 -57.38,-96.52 -114.43,-71.29 -314.09,-78.56 -330.54,-85.93 -13.13,18.31 -26.03,34.94 -39.73,54.15l-81.93 106.01c-16.76,20.03 -29.5,42.9 -51.79,42.9z"/>
    <path class="fil0 str0" d="M579.52 424.63c0,34.83 11.57,59.56 37,83.2 73.27,68.11 199.54,19.44 199.54,-83.2 0,-55.04 -54.74,-105.93 -113.54,-105.93 -71.21,0 -123,49.98 -123,105.93z"/>
   </g>
   <g>
    <path class="fil1" d="M506.99 433.47c0,-106.19 82.36,-182.46 198.69,-182.46 157.95,0 246.81,192.34 128.55,302.41 -126.97,118.17 -327.24,25.42 -327.24,-119.95zm178.34 -323.71l28.14 0c46.41,1.62 91.91,11.35 131.03,29.37 81.1,37.37 130.53,89.95 168.65,163.4 12.32,23.73 26.83,76.58 26.83,104.45 0,65.25 1.53,33.55 -9.06,91.61 -17.82,97.82 -122.11,277.18 -180.2,358.61l-100.89 141.29c-10.98,13.55 -41.55,57.2 -53.62,64.74 -7.97,-11.12 -17.22,-22.49 -26.58,-34.05l-127.81 -175.02c-25.37,-39.4 -68.68,-107.12 -90.55,-147.99 -14.02,-26.19 -47.37,-90.94 -58.22,-119.3 -5.52,-14.44 -11.29,-27.7 -16.05,-43.88 -19.57,-66.58 -21.4,-68.35 -21.4,-138.95 0,-31.08 12.59,-65 23.19,-93.14 4.22,-11.2 7.02,-13.61 11.94,-24.17 14.65,-31.47 42.7,-62.69 68.16,-86.48 16.1,-15.05 26.21,-22.42 44.44,-35.05 49.73,-34.46 115.67,-53.13 182,-55.44z"/>
    <path class="fil2" d="M699.37 1154.46c-25.69,0 -34.51,-17.94 -53.58,-41.24l-61.29 -78.17c-77.78,-99.72 -39.08,-83.61 -124.82,-74.82 -78.72,8.07 -202.69,36.24 -265.6,75.89 -95.34,60.09 -69.92,138.36 22.71,183.12 65.17,31.5 126.29,42.7 198.46,56.13 58.76,10.93 131.75,17.9 210.1,20.34l127.8 0c162.34,-4.98 327.44,-29.01 425.64,-76.47 29.42,-14.21 81.95,-51.92 81.95,-85.39 0,-47.82 -12.12,-68.33 -57.38,-96.52 -114.43,-71.29 -314.09,-78.56 -330.54,-85.93 -13.13,18.31 -26.03,34.94 -39.73,54.15l-81.93 106.01c-16.76,20.03 -29.5,42.9 -51.79,42.9z"/>
    <path class="fil3" d="M579.52 424.63c0,34.83 11.57,59.56 37,83.2 73.27,68.11 199.54,19.44 199.54,-83.2 0,-55.04 -54.74,-105.93 -113.54,-105.93 -71.21,0 -123,49.98 -123,105.93z"/>
   </g>
  </g>
 </g>
</svg>
