<?xml version="1.0" encoding="UTF-8"?>
<!DOCTYPE svg PUBLIC "-//W3C//DTD SVG 1.1//EN" "http://www.w3.org/Graphics/SVG/1.1/DTD/svg11.dtd">
<!-- Creator: CorelDRAW 2021 (64-Bit) -->
<svg xmlns="http://www.w3.org/2000/svg" xml:space="preserve" width="14mm" height="14mm" version="1.1" style="shape-rendering:geometricPrecision; text-rendering:geometricPrecision; image-rendering:optimizeQuality; fill-rule:evenodd; clip-rule:evenodd"
viewBox="0 0 1400 1400"
 xmlns:xlink="http://www.w3.org/1999/xlink"
 xmlns:xodm="http://www.corel.com/coreldraw/odm/2003">
 <defs>
  <style type="text/css">
   <![CDATA[
    .fil1 {fill:#D2D3D5}
    .fil2 {fill:#F7F7F7}
    .fil0 {fill:url(#id0)}
   ]]>
  </style>
  <radialGradient id="id0" gradientUnits="userSpaceOnUse" gradientTransform="matrix(0.972983 -0 -0 0.999997 19 0)" cx="704.97" cy="679.93" r="3537.98" fx="704.97" fy="679.93">
   <stop offset="0" style="stop-opacity:1; stop-color:#00AFEF"/>
   <stop offset="1" style="stop-opacity:1; stop-color:#325094"/>
  </radialGradient>
 </defs>
 <g id="Capa_x0020_1">
  <metadata id="CorelCorpID_0Corel-Layer"/>
  <g id="_1606392579472">
   <path class="fil0" d="M404.18 482.24c0,-46.53 16.9,-89.37 38.78,-116.32 9.07,-11.17 28.64,-31.02 40.32,-36.8 7.49,-3.71 63.68,-1.61 76.71,-1.61 1.9,7.14 57.02,119.86 62.04,130.47 13.37,28.25 22.29,33.26 3.25,71.77 -7.43,15.01 -32.17,41.98 -44.69,50.73 0.94,23.64 27.66,70.48 38.01,86.29 12.63,19.28 20.77,28.54 34.74,43.67 2.74,2.97 4.61,5.24 7.45,8.26l32.52 28.83c17.03,13.27 36.48,26.88 55.44,37.2 25.5,13.9 55.34,27.58 85.75,37.17 4.62,-2.82 28.68,-29.82 33.23,-35.47l21 -23.18c25.98,-28.46 21.32,-45.16 79.66,-12.71 13.55,7.54 26.46,13.91 39.73,21.57l78.6 42.56 1.28 18.38c3.52,101.28 -84.62,149.4 -186.47,149.4 -45.42,0 -140.91,-48.04 -180.43,-71.62 -40.51,-24.18 -72.47,-48.96 -106.97,-78.48l-31.14 -30.15c-27,-26.89 -33.19,-33.61 -58.74,-65.33 -31.7,-39.35 -102.45,-146.14 -113.39,-194.61 -4.79,-21.21 -6.68,-37.95 -6.68,-60.02zm306.26 793.6c85.76,0 167.97,-21.91 236.11,-54.05 57.37,-27.06 134.27,-79.51 177.82,-130.24 3.31,-3.85 5.22,-5.54 8.98,-9.52 39.65,-42.12 74.05,-100.86 98.86,-153.59 29.65,-63.03 52.57,-157.78 52.57,-236.57l0 -24.24c0,-78.58 -22.81,-172.7 -52.18,-235.53 -44.23,-94.63 -97.32,-163 -171.86,-223.14 -6.78,-5.47 -12.96,-10.22 -20.27,-15.39 -89.8,-63.47 -202.83,-109.55 -321.48,-109.55l-27.09 0c-119.31,0 -235.62,46.51 -325.03,111.7 -12.15,8.86 -49.3,39.37 -58.51,49.87 -8.53,9.72 -22.28,21.43 -35.63,37.07 -167.45,196.2 -195.38,473.43 -68.48,697.23 11.78,20.77 17.45,27.69 27.51,43.92 4,6.44 1.42,8.57 -1.31,16.6 -5.81,17.07 -69.19,202.8 -70.39,211.46 21.05,-5.02 46.44,-14.85 67.75,-21.57l133.81 -43.03c6.06,-1.94 11.51,-3.6 17.23,-5.59 8.49,-2.95 9.05,-2.96 15.71,1.43 89.22,58.82 194.66,92.73 315.88,92.73z"/>
   <path class="fil1" d="M708.54 1193.49c-103.8,0 -194.08,-29.04 -270.48,-79.41 -5.7,-3.76 -6.18,-3.74 -13.45,-1.22 -4.9,1.7 -9.57,3.13 -14.76,4.79l-114.59 36.84c-18.24,5.76 -39.99,14.18 -58,18.47 1.02,-7.41 55.3,-166.45 60.27,-181.07 2.34,-6.88 4.55,-8.7 1.12,-14.22 -8.62,-13.9 -13.47,-19.82 -23.56,-37.61 -108.66,-191.63 -84.75,-429.03 58.64,-597.04 11.43,-13.4 23.2,-23.42 30.51,-31.74 7.89,-8.99 39.7,-35.12 50.1,-42.7 76.57,-55.83 176.17,-95.66 278.33,-95.66l23.2 0c101.6,0 198.39,39.46 275.28,93.81 6.27,4.43 11.55,8.49 17.36,13.18 63.83,51.5 109.29,110.04 147.17,191.07 25.15,53.81 44.68,134.4 44.68,201.69l0 20.76c0,67.47 -19.62,148.61 -45.01,202.58 -21.25,45.15 -50.71,95.45 -84.66,131.51 -3.22,3.42 -4.86,4.86 -7.69,8.16 -37.29,43.44 -103.14,88.36 -152.27,111.53 -58.35,27.52 -128.74,46.28 -202.19,46.28zm-565.39 -261.92l1.99 3.65c1.18,2.87 0.98,1.92 1.99,4.59 0.54,1.44 0.93,2.99 1.59,4.51 1.07,2.5 2.99,5.71 4.2,8.07l3.86 7.25 1.03 2.5 4.92 8.49 -0.04 0.89c0.22,0.23 0.59,0.24 0.68,0.67l2.13 2.94c0.92,1.67 1.37,3.05 2.32,5.29 2.96,3.44 7.33,12.08 10.04,16.55 4.56,7.51 8.06,10.06 1.93,18.82l-54.19 160.76c-4.73,14.17 -9.01,25.83 -13.74,40 -2.42,7.27 -4.38,13.1 -6.72,20.14l-34.04 100.29c7.89,-0.66 20.14,-6.62 29.7,-8.55 4.63,-3.35 279.32,-92.14 301.96,-99.45 18.7,-6.04 15.28,-4.19 32.1,4.39 62.15,31.68 137.29,52.44 208.6,60.04 157.78,16.79 327.75,-32.35 445.15,-128.32 4.57,-3.73 7.6,-6.15 12.23,-9.77 16.88,-13.19 51.15,-46.32 63.88,-60.64 25.87,-29.1 50.89,-62.47 71.14,-96.21 22.27,-37.11 41.42,-77.08 56.68,-122.79 64.54,-193.38 25.34,-405.1 -93.14,-561.98 -6,-7.95 -13.07,-17.44 -19.47,-24.47l-43.57 -46.81c-4.01,-3.85 -7.62,-6.44 -11.49,-10.51 -19.52,-20.52 -64.69,-52.57 -89.29,-68.24 -7.52,-4.8 -22.25,-12.33 -28.1,-17.07l-8.79 -5.13 -0.73 0.07 -10.93 -6.17 -4.95 -2.24 -4.81 -2.65c-3.14,-0.71 -2.66,-0.55 -4.96,-2.14 -2.05,-0.52 -0.93,0.06 -3.07,-0.95 -1.69,-0.81 -1.45,-1.06 -2.28,-1.79 -3.21,-0.92 -5.65,-2.4 -9.12,-3.84 -56.12,-23.18 -107.03,-40.23 -170.02,-47.35 -16.9,-1.91 -35.18,-3.49 -52.47,-4.92 -57.97,-4.8 -149.14,8.22 -205.25,25.42 -53.12,16.29 -111.64,41.99 -157.86,72.94 -52.5,35.15 -74.33,54.65 -117.68,98.46l-33.09 38.97c-56.07,74.94 -89.54,138.95 -113.24,233.56 -30.38,121.29 -20.22,253.84 26.38,371.95 1.47,3.72 2.4,6.51 4.24,10.41 1.71,3.63 3.49,6.86 4.3,10.37z"/>
   <path class="fil2" d="M404.18 482.24c0,22.07 1.89,38.81 6.68,60.02 10.94,48.47 81.69,155.26 113.39,194.61 25.55,31.72 31.74,38.44 58.74,65.33l31.14 30.15c34.5,29.52 66.46,54.3 106.97,78.48 39.52,23.58 135.01,71.62 180.43,71.62 101.85,0 189.99,-48.12 186.47,-149.4l-1.28 -18.38 -78.6 -42.56c-13.27,-7.66 -26.18,-14.03 -39.73,-21.57 -58.34,-32.45 -53.68,-15.75 -79.66,12.71l-21 23.18c-4.55,5.65 -28.61,32.65 -33.23,35.47 -30.41,-9.59 -60.25,-23.27 -85.75,-37.17 -18.96,-10.32 -38.41,-23.93 -55.44,-37.2l-32.52 -28.83c-2.84,-3.02 -4.71,-5.29 -7.45,-8.26 -13.97,-15.13 -22.11,-24.39 -34.74,-43.67 -10.35,-15.81 -37.07,-62.65 -38.01,-86.29 12.52,-8.75 37.26,-35.72 44.69,-50.73 19.04,-38.51 10.12,-43.52 -3.25,-71.77 -5.02,-10.61 -60.14,-123.33 -62.04,-130.47 -13.03,0 -69.22,-2.1 -76.71,1.61 -11.68,5.78 -31.25,25.63 -40.32,36.8 -21.88,26.95 -38.78,69.79 -38.78,116.32z"/>
  </g>
 </g>
</svg>
